<svg width="332" height="134" viewBox="0 0 332 134" fill="none" xmlns="http://www.w3.org/2000/svg">
<path fill-rule="evenodd" clip-rule="evenodd" d="M59.1312 73.5786H35.9839C35.9839 75.1185 36.0951 76.6345 36.3107 78.1202C38.7281 94.785 54.2641 107.641 73.0692 107.641C91.8743 107.641 107.41 94.785 109.828 78.1202C110.043 76.6345 110.155 75.1185 110.155 73.5786H87.0072L78.3917 78.1202H104.799C102.422 92.2879 89.096 103.099 73.0692 103.099C57.0424 103.099 43.7166 92.2879 41.339 78.1202H67.6351L59.1312 73.5786Z" fill="#045DA8"/>
<path d="M47.3122 26.8003C47.3102 26.8003 47.308 26.8003 47.306 26.8003C46.6056 26.8003 45.9468 27.0494 45.4494 27.5021C44.9465 27.9598 44.6694 28.5693 44.6694 29.2181V65.4721C44.6694 66.8015 45.8596 67.8857 47.3227 67.8892C53.491 67.9026 63.8253 69.0755 70.9545 75.8823V37.9414C70.9545 37.4908 70.8284 37.0674 70.5902 36.7171C64.7389 28.1197 53.4945 26.8135 47.3122 26.8003Z" fill="#045DA8"/>
<path d="M101.354 65.4721V29.2178C101.354 28.569 101.077 27.9596 100.574 27.5019C100.076 27.0492 99.417 26.8 98.7174 26.8C98.7151 26.8 98.7129 26.8 98.7109 26.8C92.5289 26.8135 81.2845 28.1197 75.4329 36.717C75.1948 37.0674 75.0688 37.4907 75.0688 37.9414V75.882C82.1981 69.0753 92.5324 67.9023 98.7007 67.8889C100.164 67.8855 101.354 66.8013 101.354 65.4721Z" fill="#045DA8"/>
<path d="M107.389 35.161H105.468V65.4721C105.468 68.8665 102.436 71.6343 98.7102 71.6427C93.4782 71.6541 84.8514 72.5875 78.7417 77.8632C89.3084 75.5028 100.448 77.0372 106.796 78.3571C107.589 78.5218 108.408 78.3517 109.043 77.8899C109.676 77.4292 110.039 76.7406 110.039 76.0015V37.5783C110.039 36.2455 108.85 35.161 107.389 35.161Z" fill="#045DA8"/>
<path d="M40.5549 65.4721V35.161H38.6334C37.1728 35.161 35.9839 36.2455 35.9839 37.5783V76.0008C35.9839 76.7401 36.3469 77.4285 36.9798 77.8892C37.6143 78.3508 38.4327 78.5216 39.2266 78.3564C45.5749 77.0363 56.7144 75.5021 67.2806 77.8626C61.1711 72.5871 52.5443 71.6539 47.3123 71.6425C43.5864 71.6343 40.5549 68.8665 40.5549 65.4721Z" fill="#045DA8"/>
<path d="M42.9526 86.2952H86.2603" stroke="#045DA8" stroke-width="4.06711" stroke-linecap="round"/>
<path d="M67.8423 92.6533L101.194 92.6533" stroke="#045DA8" stroke-width="4.06711" stroke-linecap="round"/>
<path d="M146.971 24.9633C146.806 24.412 146.576 23.9257 146.284 23.5046C145.991 23.0759 145.634 22.716 145.214 22.425C144.801 22.1264 144.329 21.9003 143.797 21.7469C143.272 21.5934 142.692 21.52 142.056 21.5268C140.866 21.5394 139.824 21.846 138.93 22.4465C138.043 23.0468 137.356 23.914 136.869 25.0481C136.382 26.1745 136.148 27.5483 136.167 29.1694C136.186 30.7905 136.449 32.1666 136.954 33.2976C137.46 34.4287 138.167 35.2886 139.076 35.8775C139.984 36.4587 141.052 36.7429 142.279 36.7298C143.393 36.7179 144.341 36.5109 145.124 36.1086C145.915 35.6986 146.514 35.1278 146.922 34.3961C147.338 33.6644 147.54 32.8024 147.529 31.81L148.53 31.9471L142.531 32.0109L142.487 28.3066L152.225 28.203L152.26 31.1346C152.284 33.1799 151.872 34.942 151.026 36.4208C150.179 37.892 149.003 39.0333 147.498 39.8449C145.992 40.6488 144.262 41.0612 142.307 41.082C140.125 41.1052 138.203 40.6446 136.541 39.7001C134.878 38.7481 133.574 37.3869 132.629 35.6165C131.691 33.8385 131.208 31.7224 131.179 29.268C131.157 27.3817 131.41 25.6971 131.939 24.2142C132.474 22.7235 133.232 21.4578 134.212 20.417C135.193 19.3762 136.339 18.5799 137.651 18.028C138.962 17.4761 140.387 17.192 141.925 17.1756C143.243 17.1616 144.473 17.3417 145.613 17.716C146.754 18.0826 147.768 18.6097 148.655 19.2973C149.549 19.9848 150.283 20.8066 150.854 21.7627C151.426 22.7112 151.798 23.7603 151.971 24.9101L146.971 24.9633ZM163.934 40.8745C162.139 40.8936 160.589 40.5465 159.285 39.833C157.989 39.1119 156.984 38.0847 156.272 36.7513C155.559 35.4103 155.192 33.8194 155.17 31.9787C155.149 30.1833 155.479 28.604 156.16 27.2406C156.841 25.8772 157.81 24.81 159.066 24.039C160.33 23.2679 161.818 22.8733 163.53 22.8551C164.681 22.8428 165.755 23.017 166.752 23.3776C167.756 23.7306 168.634 24.2705 169.385 24.9974C170.143 25.7242 170.738 26.6422 171.167 27.7513C171.597 28.8529 171.82 30.146 171.838 31.6308L171.853 32.9602L157.116 33.1171L157.08 30.1173L167.262 30.0089C167.253 29.312 167.095 28.6962 166.785 28.1616C166.476 27.627 166.051 27.2111 165.509 26.9138C164.975 26.6088 164.356 26.4601 163.652 26.4676C162.917 26.4754 162.267 26.6528 161.703 26.9998C161.147 27.339 160.713 27.7944 160.401 28.366C160.089 28.9299 159.934 29.5566 159.934 30.246L159.968 33.0981C159.978 33.9617 160.146 34.7062 160.471 35.3315C160.804 35.9568 161.268 36.4367 161.863 36.7713C162.458 37.1059 163.161 37.2689 163.971 37.2603C164.509 37.2546 165.001 37.1736 165.446 37.0173C165.891 36.861 166.271 36.6297 166.585 36.3233C166.9 36.0169 167.138 35.6431 167.3 35.202L171.78 35.4498C171.565 36.5279 171.111 37.4722 170.415 38.2826C169.728 39.0855 168.834 39.7162 167.733 40.1749C166.64 40.626 165.373 40.8592 163.934 40.8745ZM189.476 27.7837L185.047 28.1036C184.967 27.7256 184.8 27.3865 184.547 27.0861C184.293 26.7782 183.961 26.5355 183.55 26.3581C183.146 26.173 182.664 26.0834 182.103 26.0894C181.353 26.0974 180.722 26.2632 180.211 26.5868C179.7 26.9029 179.447 27.3223 179.453 27.845C179.458 28.2616 179.629 28.6121 179.965 28.8964C180.302 29.1807 180.877 29.4056 181.689 29.5712L184.856 30.1739C186.557 30.5043 187.828 31.0514 188.671 31.8152C189.513 32.579 189.941 33.5897 189.956 34.8472C189.97 35.991 189.644 36.9983 188.98 37.8691C188.324 38.7398 187.415 39.4237 186.254 39.921C185.1 40.4105 183.766 40.6634 182.251 40.6795C179.941 40.7041 178.094 40.2427 176.712 39.2952C175.337 38.3401 174.522 37.0305 174.268 35.3665L179.026 35.0658C179.178 35.7688 179.533 36.3029 180.09 36.6682C180.648 37.0259 181.358 37.2002 182.222 37.191C183.07 37.182 183.75 37.0118 184.261 36.6806C184.78 36.3418 185.04 35.9109 185.042 35.3882C185.029 34.9489 184.839 34.591 184.472 34.3146C184.105 34.0306 183.542 33.8169 182.783 33.6735L179.753 33.1034C178.045 32.7807 176.769 32.2033 175.926 31.3713C175.09 30.5393 174.665 29.4718 174.65 28.1688C174.637 27.0477 174.928 26.0786 175.525 25.2616C176.129 24.4445 176.981 23.8104 178.082 23.3593C179.191 22.9081 180.491 22.6745 181.983 22.6586C184.188 22.6352 185.928 23.0826 187.204 24.0009C188.488 24.9191 189.245 26.18 189.476 27.7837ZM202.147 22.6713L202.189 26.3074L191.679 26.4193L191.636 22.7832L202.147 22.6713ZM193.973 18.5762L198.814 18.5247L199.004 34.7963C199.01 35.2433 199.082 35.591 199.221 35.8395C199.36 36.0805 199.552 36.2489 199.795 36.3448C200.047 36.4406 200.335 36.4868 200.661 36.4833C200.888 36.4809 201.115 36.4595 201.342 36.4193C201.569 36.3714 201.742 36.3354 201.863 36.3114L202.667 39.9053C202.425 39.9837 202.085 40.0744 201.647 40.1776C201.209 40.2883 200.676 40.3584 200.047 40.3878C198.881 40.4457 197.857 40.3013 196.974 39.9546C196.098 39.6078 195.414 39.062 194.92 38.3173C194.427 37.5725 194.177 36.6281 194.171 35.4842L193.973 18.5762ZM205.504 40.0911L205.3 22.6377L210.141 22.5862L210.345 40.0395L205.504 40.0911ZM207.705 20.362C206.986 20.3696 206.366 20.1376 205.845 19.6658C205.332 19.1864 205.071 18.6096 205.063 17.9354C205.055 17.2688 205.303 16.6942 205.804 16.2115C206.314 15.7212 206.928 15.4722 207.648 15.4646C208.368 15.4569 208.984 15.6928 209.497 16.1722C210.018 16.644 210.282 17.2132 210.29 17.8798C210.298 18.554 210.047 19.1362 209.538 19.6265C209.036 20.1092 208.425 20.3543 207.705 20.362ZM222.113 40.2552C220.347 40.274 218.817 39.9153 217.52 39.179C216.231 38.4351 215.23 37.3927 214.517 36.0517C213.805 34.7032 213.438 33.135 213.417 31.3473C213.396 29.5443 213.726 27.965 214.407 26.6092C215.088 25.2458 216.064 24.1823 217.336 23.4187C218.615 22.6475 220.137 22.2525 221.902 22.2337C223.667 22.2149 225.194 22.5775 226.483 23.3214C227.779 24.0576 228.784 25.1 229.497 26.4485C230.21 27.7895 230.577 29.3615 230.598 31.1644C230.619 32.9521 230.288 34.5277 229.607 35.8911C228.926 37.2469 227.946 38.3104 226.667 39.0816C225.396 39.8452 223.878 40.2364 222.113 40.2552ZM222.091 36.5052C222.894 36.4967 223.562 36.2623 224.095 35.802C224.627 35.3342 225.025 34.7012 225.288 33.9028C225.559 33.1045 225.689 32.1977 225.677 31.1826C225.665 30.1676 225.514 29.2638 225.225 28.4714C224.943 27.6789 224.53 27.0545 223.987 26.5981C223.444 26.1417 222.771 25.9178 221.968 25.9264C221.157 25.935 220.478 26.1733 219.93 26.6413C219.39 27.1092 218.985 27.7423 218.714 28.5407C218.45 29.339 218.325 30.2457 218.337 31.2608C218.348 32.2759 218.495 33.1797 218.777 33.9722C219.067 34.7646 219.487 35.3889 220.038 35.8452C220.596 36.2938 221.281 36.5138 222.091 36.5052ZM238.569 29.6476L238.687 39.7378L233.847 39.7894L233.642 22.336L238.256 22.2869L238.292 25.3662L238.496 25.3641C238.871 24.3449 239.509 23.535 240.411 22.9344C241.313 22.3263 242.412 22.0154 243.707 22.0016C244.919 21.9887 245.979 22.2426 246.887 22.7632C247.794 23.2839 248.504 24.034 249.016 25.0134C249.527 25.9853 249.791 27.1492 249.806 28.5052L249.937 39.6181L245.096 39.6696L244.976 29.4203C244.971 28.3521 244.689 27.5217 244.129 26.9292C243.568 26.3291 242.804 26.0341 241.834 26.0445C241.182 26.0514 240.608 26.1977 240.112 26.4833C239.623 26.7688 239.241 27.182 238.967 27.7228C238.701 28.256 238.568 28.8976 238.569 29.6476ZM132.181 79.8738L131.909 56.6027L147.589 56.4357L147.637 60.4923L136.876 60.6068L136.941 66.1519L146.895 66.0459L146.943 70.1025L136.989 70.2084L137.054 75.7649L147.86 75.6498L147.907 79.7064L132.181 79.8738ZM156.251 56.3435L156.523 79.6147L151.683 79.6662L151.41 56.3951L156.251 56.3435ZM168.359 79.8296C166.564 79.8487 165.014 79.5015 163.71 78.7881C162.414 78.067 161.409 77.0398 160.697 75.7064C159.984 74.3654 159.617 72.7745 159.595 70.9337C159.574 69.1384 159.904 67.5591 160.585 66.1957C161.266 64.8323 162.235 63.7651 163.491 62.9941C164.755 62.223 166.243 61.8284 167.955 61.8102C169.106 61.7979 170.18 61.9721 171.177 62.3327C172.181 62.6857 173.059 63.2256 173.81 63.9525C174.568 64.6793 175.163 65.5973 175.592 66.7064C176.022 67.808 176.245 69.1011 176.263 70.5859L176.278 71.9153L161.54 72.0722L161.505 69.0724L171.687 68.964C171.678 68.2671 171.52 67.6513 171.21 67.1167C170.901 66.5821 170.476 66.1661 169.934 65.8689C169.4 65.5639 168.781 65.4152 168.077 65.4227C167.342 65.4305 166.692 65.6079 166.128 65.9548C165.572 66.2941 165.138 66.7495 164.826 67.321C164.514 67.885 164.359 68.5117 164.359 69.2011L164.393 72.0532C164.403 72.9168 164.571 73.6612 164.896 74.2866C165.229 74.9119 165.693 75.3918 166.288 75.7264C166.883 76.061 167.586 76.224 168.396 76.2154C168.934 76.2096 169.426 76.1286 169.871 75.9724C170.316 75.8161 170.696 75.5848 171.01 75.2784C171.325 74.972 171.563 74.5982 171.725 74.1571L176.205 74.4049C175.99 75.483 175.536 76.4273 174.84 77.2377C174.153 78.0405 173.259 78.6713 172.158 79.13C171.065 79.5811 169.798 79.8143 168.359 79.8296ZM187.415 79.6267C185.627 79.6458 184.085 79.2834 182.788 78.5396C181.499 77.7881 180.502 76.738 179.796 75.3894C179.099 74.0407 178.74 72.4838 178.719 70.7188C178.698 68.9311 179.024 67.3593 179.698 66.0036C180.379 64.6402 181.355 63.5729 182.627 62.8018C183.898 62.023 185.416 61.6243 187.181 61.6055C188.704 61.5893 190.04 61.8516 191.191 62.3924C192.341 62.9332 193.255 63.7 193.934 64.6929C194.612 65.6857 194.993 66.856 195.077 68.2036L190.509 68.2523C190.37 67.3825 190.021 66.6854 189.462 66.161C188.91 65.629 188.191 65.3677 187.305 65.3771C186.555 65.3851 185.902 65.5966 185.346 66.0116C184.798 66.419 184.373 67.0107 184.071 67.7867C183.77 68.5626 183.626 69.4998 183.638 70.5983C183.651 71.7118 183.814 72.6571 184.126 73.4341C184.446 74.2111 184.888 74.8011 185.454 75.2042C186.019 75.6073 186.677 75.8048 187.427 75.7969C187.98 75.791 188.475 75.6721 188.911 75.4401C189.356 75.2081 189.719 74.8747 190.002 74.4398C190.292 73.9973 190.479 73.4688 190.563 72.8542L195.131 72.8056C195.071 74.1396 194.721 75.3177 194.081 76.3397C193.449 77.354 192.568 78.1513 191.439 78.7316C190.309 79.3118 188.968 79.6102 187.415 79.6267ZM207.384 61.6177L207.427 65.2538L196.916 65.3657L196.874 61.7296L207.384 61.6177ZM199.211 57.5227L204.051 57.4711L204.242 73.7428C204.247 74.1897 204.319 74.5374 204.459 74.786C204.598 75.0269 204.789 75.1953 205.033 75.2912C205.284 75.3871 205.572 75.4332 205.898 75.4298C206.125 75.4273 206.352 75.406 206.579 75.3657C206.806 75.3178 206.98 75.2819 207.101 75.2579L207.904 78.8518C207.663 78.9301 207.323 79.0209 206.885 79.124C206.446 79.2347 205.913 79.3048 205.285 79.3342C204.119 79.3921 203.094 79.2477 202.211 78.901C201.336 78.5543 200.651 78.0085 200.158 77.2637C199.664 76.5189 199.415 75.5745 199.409 74.4306L199.211 57.5227ZM210.742 79.0375L210.538 61.5841L215.23 61.5342L215.266 64.5794L215.448 64.5775C215.753 63.4909 216.278 62.667 217.021 62.1061C217.765 61.5375 218.625 61.248 219.602 61.2376C219.845 61.2351 220.106 61.2474 220.387 61.2747C220.667 61.3021 220.914 61.3411 221.127 61.3919L221.177 65.687C220.949 65.6213 220.634 65.564 220.232 65.5153C219.83 65.4665 219.462 65.4439 219.129 65.4475C218.417 65.455 217.782 65.6171 217.225 65.9337C216.676 66.2426 216.241 66.6714 215.922 67.2203C215.61 67.7691 215.459 68.3996 215.467 69.1116L215.582 78.986L210.742 79.0375ZM230.912 79.1637C229.147 79.1825 227.616 78.8238 226.32 78.0875C225.031 77.3436 224.03 76.3012 223.317 74.9602C222.604 73.6117 222.237 72.0435 222.217 70.2558C222.195 68.4529 222.525 66.8735 223.207 65.5177C223.888 64.1543 224.864 63.0908 226.135 62.3272C227.414 61.556 228.936 61.161 230.701 61.1422C232.466 61.1234 233.993 61.486 235.283 62.2299C236.579 62.9661 237.584 64.0085 238.297 65.3571C239.009 66.698 239.376 68.27 239.397 70.0729C239.418 71.8606 239.088 73.4362 238.407 74.7996C237.726 76.1554 236.746 77.2189 235.467 77.9902C234.196 78.7537 232.677 79.1449 230.912 79.1637ZM230.891 75.4137C231.694 75.4052 232.362 75.1708 232.894 74.7105C233.427 74.2427 233.825 73.6097 234.088 72.8114C234.359 72.013 234.489 71.1062 234.477 70.0912C234.465 69.0761 234.314 68.1723 234.025 67.3799C233.743 66.5874 233.33 65.963 232.787 65.5066C232.243 65.0503 231.57 64.8264 230.767 64.8349C229.957 64.8435 229.278 65.0818 228.73 65.5498C228.19 66.0177 227.785 66.6508 227.514 67.4492C227.25 68.2475 227.124 69.1542 227.136 70.1693C227.148 71.1844 227.295 72.0882 227.577 72.8807C227.867 73.6731 228.287 74.2974 228.838 74.7537C229.396 75.2023 230.081 75.4223 230.891 75.4137ZM247.369 68.5561L247.487 78.6463L242.646 78.6979L242.442 61.2445L247.055 61.1954L247.091 64.2747L247.296 64.2726C247.67 63.2534 248.309 62.4435 249.211 61.843C250.113 61.2348 251.212 60.9239 252.507 60.9101C253.719 60.8972 254.779 61.1511 255.687 61.6717C256.594 62.1924 257.304 62.9425 257.815 63.9219C258.327 64.8938 258.59 66.0577 258.606 67.4137L258.736 78.5266L253.896 78.5781L253.776 68.3288C253.771 67.2606 253.488 66.4303 252.928 65.8377C252.368 65.2376 251.603 64.9427 250.634 64.953C249.982 64.9599 249.408 65.1062 248.911 65.3918C248.422 65.6773 248.041 66.0905 247.767 66.6313C247.5 67.1645 247.368 67.8061 247.369 68.5561ZM262.551 78.486L262.347 61.0326L267.188 60.9811L267.392 78.4344L262.551 78.486ZM264.752 58.7569C264.033 58.7646 263.413 58.5325 262.892 58.0607C262.379 57.5813 262.118 57.0045 262.11 56.3303C262.102 55.6637 262.35 55.0891 262.851 54.6064C263.361 54.1161 263.975 53.8672 264.695 53.8595C265.415 53.8518 266.031 54.0877 266.544 54.5671C267.065 55.0389 267.329 55.6081 267.337 56.2747C267.345 56.9489 267.094 57.5311 266.585 58.0214C266.083 58.5041 265.472 58.7492 264.752 58.7569ZM282.88 84.8154L282.77 75.4751L282.623 75.4767C282.401 75.9639 282.085 76.4484 281.674 76.9301C281.27 77.4041 280.741 77.7999 280.085 78.1175C279.437 78.435 278.644 78.5988 277.704 78.6088C276.379 78.6229 275.174 78.2948 274.09 77.6245C273.014 76.9465 272.154 75.9442 271.51 74.6177C270.873 73.2835 270.543 71.6429 270.52 69.6961C270.497 67.6962 270.799 66.0301 271.428 64.6975C272.056 63.3574 272.9 62.3522 273.961 61.6818C275.028 61.0037 276.203 60.6578 277.483 60.6442C278.46 60.6338 279.276 60.7918 279.932 61.1182C280.595 61.4369 281.13 61.8403 281.537 62.3284C281.952 62.8089 282.268 63.2828 282.485 63.7502L282.69 63.7481L282.656 60.8164L287.428 60.7656L287.709 84.764L282.88 84.8154ZM279.193 74.7404C279.974 74.7321 280.63 74.513 281.163 74.0831C281.703 73.6455 282.113 73.0388 282.392 72.2631C282.678 71.4872 282.815 70.5804 282.803 69.5426C282.791 68.5048 282.637 67.6049 282.34 66.8429C282.043 66.0808 281.619 65.4944 281.069 65.0836C280.519 64.6727 279.853 64.4715 279.073 64.4798C278.278 64.4882 277.61 64.7113 277.07 65.1489C276.529 65.5865 276.123 66.1893 275.852 66.9574C275.581 67.7255 275.451 68.6133 275.463 69.6208C275.475 70.6358 275.625 71.532 275.915 72.3093C276.212 73.0789 276.632 73.6805 277.175 74.1142C277.725 74.5401 278.398 74.7489 279.193 74.7404ZM302.624 70.6272L302.507 60.6051L307.347 60.5536L307.552 78.0069L302.904 78.0564L302.867 74.8862L302.685 74.8881C302.303 75.915 301.658 76.7438 300.748 77.3748C299.847 78.0056 298.74 78.328 297.43 78.342C296.263 78.3544 295.234 78.1002 294.341 77.5794C293.449 77.0585 292.747 76.3122 292.235 75.3403C291.731 74.3683 291.468 73.2006 291.444 71.8371L291.314 60.7243L296.155 60.6727L296.275 70.922C296.294 71.9522 296.58 72.7636 297.133 73.3562C297.685 73.9489 298.42 74.2403 299.336 74.2305C299.92 74.2243 300.464 74.086 300.968 73.8154C301.472 73.5373 301.877 73.1315 302.181 72.5979C302.493 72.0642 302.641 71.4073 302.624 70.6272ZM319.382 78.2219C317.586 78.241 316.037 77.8939 314.733 77.1805C313.436 76.4594 312.432 75.4321 311.719 74.0987C311.007 72.7577 310.639 71.1669 310.618 69.3261C310.597 67.5308 310.927 65.9514 311.608 64.588C312.289 63.2246 313.258 62.1574 314.514 61.3864C315.778 60.6154 317.266 60.2207 318.978 60.2025C320.129 60.1902 321.203 60.3644 322.2 60.725C323.204 61.078 324.082 61.6179 324.833 62.3448C325.591 63.0717 326.185 63.9896 326.615 65.0987C327.045 66.2003 327.268 67.4934 327.285 68.9782L327.301 70.3076L312.563 70.4645L312.528 67.4647L322.709 67.3564C322.701 66.6594 322.542 66.0437 322.233 65.509C321.924 64.9744 321.498 64.5585 320.957 64.2612C320.423 63.9563 319.804 63.8075 319.099 63.815C318.365 63.8229 317.715 64.0002 317.151 64.3472C316.594 64.6864 316.16 65.1419 315.849 65.7134C315.537 66.2773 315.382 66.904 315.382 67.5935L315.415 70.4455C315.426 71.3091 315.593 72.0536 315.919 72.6789C316.252 73.3042 316.716 73.7842 317.311 74.1187C317.906 74.4533 318.608 74.6163 319.419 74.6077C319.957 74.602 320.448 74.521 320.893 74.3647C321.339 74.2085 321.719 73.9771 322.033 73.6707C322.348 73.3643 322.586 72.9906 322.747 72.5494L327.228 72.7972C327.013 73.8753 326.558 74.8196 325.863 75.6301C325.176 76.4329 324.281 77.0637 323.181 77.5224C322.087 77.9734 320.821 78.2066 319.382 78.2219ZM140.887 118.783L132.637 118.871L132.365 95.6L140.683 95.5114C143.023 95.4865 145.044 95.9309 146.744 96.8447C148.444 97.7509 149.759 99.0665 150.688 100.792C151.625 102.517 152.108 104.587 152.136 107.004C152.165 109.428 151.731 111.516 150.834 113.268C149.946 115.02 148.655 116.371 146.961 117.321C145.275 118.271 143.25 118.758 140.887 118.783ZM137.508 114.603L140.633 114.57C142.088 114.554 143.308 114.284 144.294 113.758C145.288 113.225 146.029 112.41 146.516 111.314C147.01 110.21 147.248 108.791 147.227 107.056C147.207 105.336 146.937 103.934 146.417 102.849C145.904 101.763 145.148 100.968 144.15 100.463C143.152 99.9589 141.925 99.7144 140.471 99.7298L137.335 99.7632L137.508 114.603ZM163.716 118.881C161.951 118.9 160.42 118.541 159.124 117.805C157.835 117.061 156.834 116.019 156.121 114.678C155.408 113.329 155.041 111.761 155.021 109.973C154.999 108.17 155.329 106.591 156.011 105.235C156.692 103.872 157.668 102.808 158.939 102.045C160.218 101.274 161.74 100.879 163.505 100.86C165.27 100.841 166.798 101.203 168.087 101.947C169.383 102.684 170.388 103.726 171.101 105.075C171.813 106.416 172.18 107.987 172.201 109.79C172.222 111.578 171.892 113.154 171.211 114.517C170.53 115.873 169.55 116.936 168.271 117.708C167 118.471 165.481 118.862 163.716 118.881ZM163.695 115.131C164.498 115.123 165.166 114.888 165.698 114.428C166.231 113.96 166.629 113.327 166.892 112.529C167.163 111.73 167.293 110.824 167.281 109.809C167.269 108.794 167.118 107.89 166.829 107.097C166.547 106.305 166.134 105.68 165.591 105.224C165.047 104.768 164.374 104.544 163.571 104.552C162.761 104.561 162.082 104.799 161.534 105.267C160.994 105.735 160.589 106.368 160.318 107.167C160.054 107.965 159.928 108.872 159.94 109.887C159.952 110.902 160.099 111.806 160.381 112.598C160.671 113.391 161.091 114.015 161.642 114.471C162.2 114.92 162.885 115.14 163.695 115.131ZM183.34 118.672C181.552 118.691 180.01 118.329 178.714 117.585C177.424 116.834 176.427 115.784 175.722 114.435C175.024 113.086 174.665 111.529 174.644 109.764C174.624 107.977 174.95 106.405 175.623 105.049C176.304 103.686 177.281 102.618 178.552 101.847C179.823 101.069 181.341 100.67 183.107 100.651C184.629 100.635 185.966 100.897 187.116 101.438C188.266 101.979 189.181 102.746 189.859 103.738C190.537 104.731 190.919 105.902 191.002 107.249L186.435 107.298C186.296 106.428 185.946 105.731 185.387 105.207C184.836 104.675 184.117 104.413 183.23 104.423C182.48 104.431 181.827 104.642 181.272 105.057C180.723 105.465 180.298 106.056 179.997 106.832C179.695 107.608 179.551 108.545 179.564 109.644C179.577 110.757 179.739 111.703 180.052 112.48C180.371 113.257 180.814 113.847 181.379 114.25C181.945 114.653 182.602 114.85 183.352 114.842C183.905 114.837 184.4 114.718 184.837 114.486C185.281 114.254 185.645 113.92 185.927 113.485C186.218 113.043 186.405 112.514 186.488 111.9L191.056 111.851C190.996 113.185 190.646 114.363 190.007 115.385C189.375 116.4 188.494 117.197 187.364 117.777C186.234 118.357 184.893 118.656 183.34 118.672ZM205.336 110.665L205.219 100.643L210.059 100.591L210.264 118.045L205.616 118.094L205.579 114.924L205.397 114.926C205.015 115.953 204.37 116.782 203.46 117.413C202.559 118.043 201.452 118.366 200.142 118.38C198.975 118.392 197.946 118.138 197.053 117.617C196.161 117.096 195.459 116.35 194.947 115.378C194.443 114.406 194.18 113.238 194.156 111.875L194.026 100.762L198.867 100.711L198.987 110.96C199.006 111.99 199.292 112.801 199.845 113.394C200.397 113.987 201.132 114.278 202.048 114.268C202.632 114.262 203.176 114.124 203.68 113.853C204.184 113.575 204.589 113.169 204.893 112.636C205.205 112.102 205.353 111.445 205.336 110.665ZM214.136 118.004L213.931 100.55L218.545 100.501L218.581 103.58L218.785 103.578C219.137 102.552 219.734 101.739 220.575 101.139C221.417 100.539 222.428 100.232 223.61 100.22C224.807 100.207 225.829 100.496 226.677 101.085C227.525 101.667 228.095 102.464 228.387 103.476L228.569 103.474C228.913 102.47 229.548 101.664 230.472 101.056C231.405 100.44 232.511 100.125 233.791 100.112C235.42 100.094 236.748 100.599 237.775 101.626C238.81 102.645 239.338 104.102 239.36 105.996L239.498 117.734L234.669 117.785L234.542 107.002C234.531 106.032 234.265 105.308 233.744 104.828C233.223 104.349 232.577 104.113 231.804 104.122C230.925 104.131 230.243 104.418 229.757 104.984C229.271 105.543 229.033 106.276 229.044 107.185L229.169 117.844L224.476 117.893L224.349 107.008C224.338 106.152 224.084 105.473 223.586 104.97C223.095 104.468 222.452 104.221 221.657 104.23C221.119 104.235 220.636 104.377 220.207 104.654C219.786 104.924 219.453 105.302 219.209 105.79C218.965 106.27 218.846 106.832 218.854 107.475L218.976 117.952L214.136 118.004ZM251.28 117.949C249.484 117.968 247.935 117.621 246.631 116.908C245.334 116.187 244.33 115.159 243.617 113.826C242.904 112.485 242.537 110.894 242.516 109.053C242.495 107.258 242.825 105.679 243.506 104.315C244.187 102.952 245.155 101.885 246.412 101.114C247.675 100.343 249.163 99.9479 250.875 99.9296C252.027 99.9174 253.101 100.092 254.098 100.452C255.102 100.805 255.979 101.345 256.73 102.072C257.489 102.799 258.083 103.717 258.513 104.826C258.942 105.927 259.166 107.221 259.183 108.705L259.199 110.035L244.461 110.192L244.426 107.192L254.607 107.084C254.599 106.387 254.44 105.771 254.131 105.236C253.822 104.702 253.396 104.286 252.855 103.988C252.321 103.683 251.702 103.535 250.997 103.542C250.262 103.55 249.613 103.727 249.049 104.074C248.492 104.414 248.058 104.869 247.747 105.441C247.435 106.004 247.279 106.631 247.28 107.321L247.313 110.173C247.323 111.036 247.491 111.781 247.817 112.406C248.15 113.031 248.614 113.511 249.209 113.846C249.804 114.18 250.506 114.343 251.317 114.335C251.855 114.329 252.346 114.248 252.791 114.092C253.236 113.936 253.616 113.704 253.931 113.398C254.246 113.091 254.484 112.718 254.645 112.277L259.126 112.524C258.911 113.602 258.456 114.547 257.761 115.357C257.073 116.16 256.179 116.791 255.078 117.25C253.985 117.701 252.719 117.934 251.28 117.949ZM267.168 107.348L267.286 117.438L262.445 117.489L262.241 100.036L266.854 99.9868L266.891 103.066L267.095 103.064C267.469 102.045 268.108 101.235 269.01 100.634C269.912 100.026 271.011 99.7153 272.306 99.7015C273.518 99.6886 274.578 99.9425 275.486 100.463C276.393 100.984 277.103 101.734 277.614 102.713C278.126 103.685 278.389 104.849 278.405 106.205L278.535 117.318L273.695 117.37L273.575 107.12C273.57 106.052 273.287 105.222 272.727 104.629C272.167 104.029 271.402 103.734 270.433 103.744C269.781 103.751 269.207 103.898 268.711 104.183C268.221 104.469 267.84 104.882 267.566 105.423C267.299 105.956 267.167 106.598 267.168 107.348ZM291.43 99.7252L291.472 103.361L280.962 103.473L280.919 99.8371L291.43 99.7252ZM283.256 95.6302L288.097 95.5786L288.287 111.85C288.293 112.297 288.365 112.645 288.504 112.893C288.643 113.134 288.835 113.303 289.078 113.399C289.329 113.495 289.618 113.541 289.944 113.537C290.171 113.535 290.398 113.513 290.625 113.473C290.851 113.425 291.025 113.389 291.146 113.365L291.95 116.959C291.708 117.038 291.368 117.128 290.93 117.232C290.492 117.342 289.959 117.412 289.33 117.442C288.164 117.5 287.14 117.355 286.257 117.009C285.381 116.662 284.697 116.116 284.203 115.371C283.71 114.626 283.46 113.682 283.454 112.538L283.256 95.6302ZM308.944 104.516L304.516 104.836C304.436 104.458 304.269 104.119 304.015 103.819C303.762 103.511 303.429 103.268 303.018 103.091C302.615 102.906 302.132 102.816 301.572 102.822C300.822 102.83 300.191 102.996 299.68 103.319C299.168 103.635 298.916 104.055 298.922 104.578C298.927 104.994 299.097 105.345 299.434 105.629C299.771 105.913 300.345 106.138 301.158 106.304L304.324 106.907C306.025 107.237 307.297 107.784 308.139 108.548C308.982 109.312 309.41 110.322 309.425 111.58C309.438 112.724 309.113 113.731 308.449 114.602C307.792 115.472 306.884 116.156 305.723 116.654C304.569 117.143 303.235 117.396 301.72 117.412C299.409 117.437 297.563 116.975 296.181 116.028C294.806 115.073 293.991 113.763 293.737 112.099L298.495 111.798C298.647 112.501 299.002 113.036 299.559 113.401C300.116 113.759 300.827 113.933 301.69 113.924C302.539 113.915 303.219 113.744 303.73 113.413C304.249 113.074 304.509 112.644 304.51 112.121C304.498 111.681 304.308 111.324 303.941 111.047C303.574 110.763 303.011 110.55 302.252 110.406L299.222 109.836C297.513 109.513 296.238 108.936 295.395 108.104C294.559 107.272 294.134 106.204 294.118 104.901C294.105 103.78 294.397 102.811 294.993 101.994C295.598 101.177 296.45 100.543 297.551 100.092C298.659 99.6407 299.96 99.4071 301.452 99.3912C303.657 99.3678 305.397 99.8152 306.673 100.733C307.956 101.652 308.714 102.913 308.944 104.516Z" fill="#045DA8"/>
</svg>
