<svg width="140" height="137" viewBox="0 0 140 137" fill="none" xmlns="http://www.w3.org/2000/svg">
<g clip-path="url(#clip0_289_5712)">
<path d="M88.8777 30.8108H51.1538C50.2941 30.8119 49.47 31.1547 48.8621 31.7641C48.2542 32.3735 47.9123 33.1997 47.9112 34.0615V118.113L47.4789 118.246L38.2246 121.087C37.786 121.221 37.3123 121.175 36.9074 120.959C36.5025 120.743 36.1996 120.375 36.0651 119.936L8.53786 29.7944C8.4039 29.3547 8.44956 28.8797 8.6648 28.4738C8.88005 28.0678 9.24726 27.7641 9.68574 27.6295L23.9466 23.2519L65.2892 10.5655L79.5499 6.18793C79.767 6.12097 79.995 6.09757 80.2211 6.11907C80.4472 6.14057 80.6668 6.20655 80.8673 6.31324C81.0679 6.41992 81.2456 6.56521 81.3901 6.7408C81.5346 6.91638 81.6432 7.11881 81.7095 7.3365L88.7459 30.3774L88.8777 30.8108Z" fill="#EFF2F6"/>
<path d="M97.1098 30.3776L88.6294 2.60807C88.4883 2.14538 88.2576 1.71509 87.9506 1.3418C87.6436 0.968507 87.2662 0.659525 86.84 0.43251C86.4138 0.205494 85.9471 0.0648923 85.4667 0.0187436C84.9863 -0.0274051 84.5015 0.021804 84.0401 0.163554L63.9902 6.31602L22.6498 19.0045L2.59997 25.1592C1.66856 25.4459 0.888682 26.0914 0.431511 26.954C-0.0256595 27.8165 -0.122769 28.8257 0.161503 29.76L29.1457 124.665C29.3766 125.419 29.8426 126.079 30.4752 126.548C31.1078 127.018 31.8738 127.271 32.6607 127.272C33.0249 127.272 33.3871 127.217 33.735 127.109L47.4791 122.892L47.9115 122.758V122.305L47.4791 122.437L33.6075 126.696C32.7854 126.947 31.8974 126.861 31.1383 126.457C30.3793 126.052 29.8112 125.363 29.5586 124.539L0.576639 29.6321C0.451496 29.224 0.40788 28.7952 0.448288 28.3702C0.488695 27.9452 0.61233 27.5323 0.812119 27.1553C1.01191 26.7783 1.28393 26.4444 1.61259 26.1729C1.94126 25.9014 2.32012 25.6976 2.72747 25.5731L22.7773 19.4185L64.1179 6.73211L84.1677 0.577479C84.4767 0.482949 84.7979 0.43475 85.1209 0.434448C85.8142 0.436008 86.4888 0.66008 87.0459 1.07384C87.6029 1.4876 88.0132 2.06931 88.2166 2.73377L96.658 30.3776L96.792 30.811H97.2417L97.1098 30.3776Z" fill="#7995B4"/>
<path d="M26.5202 27.7004C26.1036 27.7001 25.698 27.5659 25.363 27.3176C25.0279 27.0693 24.7811 26.7199 24.6587 26.3206L21.8743 17.2031C21.7995 16.9582 21.7736 16.7009 21.7979 16.446C21.8223 16.191 21.8966 15.9433 22.0164 15.7171C22.1363 15.4909 22.2994 15.2906 22.4965 15.1276C22.6936 14.9647 22.9208 14.8422 23.1651 14.7672L61.198 3.09428C61.6914 2.94335 62.2243 2.99483 62.6799 3.23741C63.1355 3.48 63.4764 3.89388 63.6279 4.38821L66.4123 13.5058C66.5627 14.0004 66.5113 14.5347 66.2694 14.9914C66.0274 15.448 65.6146 15.7898 65.1216 15.9418L27.0886 27.6148C26.9044 27.6714 26.7129 27.7003 26.5202 27.7004Z" fill="#3492F2"/>
<path d="M26.5202 27.7004C26.1036 27.7001 25.698 27.5659 25.363 27.3176C25.0279 27.0693 24.7811 26.7199 24.6587 26.3206L21.8743 17.2031C21.7995 16.9582 21.7736 16.7009 21.7979 16.446C21.8223 16.191 21.8966 15.9433 22.0164 15.7171C22.1363 15.4909 22.2994 15.2906 22.4965 15.1276C22.6936 14.9647 22.9208 14.8422 23.1651 14.7672L61.198 3.09428C61.6914 2.94335 62.2243 2.99483 62.6799 3.23741C63.1355 3.48 63.4764 3.89388 63.6279 4.38821L66.4123 13.5058C66.5627 14.0004 66.5113 14.5347 66.2694 14.9914C66.0274 15.448 65.6146 15.7898 65.1216 15.9418L27.0886 27.6148C26.9044 27.6714 26.7129 27.7003 26.5202 27.7004Z" fill="black" fill-opacity="0.2"/>
<path d="M41.1056 9.74223C43.4934 9.74223 45.4291 7.80172 45.4291 5.40798C45.4291 3.01424 43.4934 1.07373 41.1056 1.07373C38.7179 1.07373 36.7822 3.01424 36.7822 5.40798C36.7822 7.80172 38.7179 9.74223 41.1056 9.74223Z" fill="#3492F2"/>
<path d="M41.1056 9.74223C43.4934 9.74223 45.4291 7.80172 45.4291 5.40798C45.4291 3.01424 43.4934 1.07373 41.1056 1.07373C38.7179 1.07373 36.7822 3.01424 36.7822 5.40798C36.7822 7.80172 38.7179 9.74223 41.1056 9.74223Z" fill="black" fill-opacity="0.2"/>
<path d="M41.1054 8.15249C42.6174 8.15249 43.8431 6.9237 43.8431 5.40791C43.8431 3.89212 42.6174 2.66333 41.1054 2.66333C39.5934 2.66333 38.3677 3.89212 38.3677 5.40791C38.3677 6.9237 39.5934 8.15249 41.1054 8.15249Z" fill="white"/>
<path d="M130.272 126.164H57.2066C56.7194 126.164 56.2524 125.97 55.9079 125.624C55.5635 125.279 55.3697 124.811 55.3691 124.322V36.5537C55.3697 36.0654 55.5634 35.5971 55.9079 35.2518C56.2524 34.9065 56.7194 34.7122 57.2066 34.7117H130.272C130.759 34.7122 131.226 34.9065 131.571 35.2518C131.915 35.5971 132.109 36.0654 132.11 36.5537V124.322C132.109 124.811 131.915 125.279 131.571 125.624C131.226 125.97 130.759 126.164 130.272 126.164Z" fill="#EFF2F6"/>
<path d="M96.6578 30.3774H51.1539C50.1797 30.3788 49.2458 30.7674 48.5569 31.458C47.868 32.1486 47.4804 33.0849 47.479 34.0616V122.437L47.9113 122.305V34.0616C47.9124 33.1997 48.2544 32.3735 48.8622 31.7641C49.4701 31.1547 50.2942 30.8119 51.1539 30.8109H96.7919L96.6578 30.3774ZM136.325 30.3774H51.1539C50.1797 30.3788 49.2458 30.7674 48.5569 31.458C47.868 32.1486 47.4804 33.0849 47.479 34.0616V133.316C47.4804 134.293 47.868 135.229 48.5569 135.919C49.2458 136.61 50.1797 136.999 51.1539 137H136.325C137.299 136.999 138.233 136.61 138.922 135.919C139.611 135.229 139.999 134.293 140 133.316V34.0616C139.999 33.0849 139.611 32.1486 138.922 31.458C138.233 30.7674 137.299 30.3788 136.325 30.3774ZM139.568 133.316C139.567 134.178 139.225 135.004 138.617 135.613C138.009 136.223 137.185 136.566 136.325 136.567H51.1539C50.2942 136.566 49.4701 136.223 48.8622 135.613C48.2544 135.004 47.9124 134.178 47.9113 133.316V34.0616C47.9124 33.1997 48.2544 32.3735 48.8622 31.7641C49.4701 31.1547 50.2942 30.8119 51.1539 30.8109H136.325C137.185 30.8119 138.009 31.1547 138.617 31.7641C139.225 32.3735 139.567 33.1997 139.568 34.0616V133.316Z" fill="#7995B4"/>
<path d="M113.627 39.9127H73.8518C73.336 39.9122 72.8415 39.7065 72.4767 39.3408C72.112 38.9752 71.9068 38.4794 71.9062 37.9623V28.427C71.9068 27.9099 72.112 27.4141 72.4767 27.0485C72.8415 26.6828 73.336 26.4771 73.8518 26.4766H113.627C114.143 26.4771 114.638 26.6828 115.002 27.0485C115.367 27.4141 115.572 27.9099 115.573 28.427V37.9623C115.572 38.4794 115.367 38.9752 115.002 39.3408C114.638 39.7065 114.143 39.9122 113.627 39.9127Z" fill="#3492F2"/>
<path d="M113.627 39.9127H73.8518C73.336 39.9122 72.8415 39.7065 72.4767 39.3408C72.112 38.9752 71.9068 38.4794 71.9062 37.9623V28.427C71.9068 27.9099 72.112 27.4141 72.4767 27.0485C72.8415 26.6828 73.336 26.4771 73.8518 26.4766H113.627C114.143 26.4771 114.638 26.6828 115.002 27.0485C115.367 27.4141 115.572 27.9099 115.573 28.427V37.9623C115.572 38.4794 115.367 38.9752 115.002 39.3408C114.638 39.7065 114.143 39.9122 113.627 39.9127Z" fill="black" fill-opacity="0.2"/>
<path d="M93.7394 27.1268C96.1272 27.1268 98.0628 25.1862 98.0628 22.7925C98.0628 20.3988 96.1272 18.4583 93.7394 18.4583C91.3517 18.4583 89.416 20.3988 89.416 22.7925C89.416 25.1862 91.3517 27.1268 93.7394 27.1268Z" fill="#3492F2"/>
<path d="M93.7394 27.1268C96.1272 27.1268 98.0628 25.1862 98.0628 22.7925C98.0628 20.3988 96.1272 18.4583 93.7394 18.4583C91.3517 18.4583 89.416 20.3988 89.416 22.7925C89.416 25.1862 91.3517 27.1268 93.7394 27.1268Z" fill="black" fill-opacity="0.2"/>
<path d="M93.7393 25.4325C95.1937 25.4325 96.3727 24.2506 96.3727 22.7926C96.3727 21.3345 95.1937 20.1526 93.7393 20.1526C92.285 20.1526 91.106 21.3345 91.106 22.7926C91.106 24.2506 92.285 25.4325 93.7393 25.4325Z" fill="white"/>
</g>
<defs>
<clipPath id="clip0_289_5712">
<rect width="140" height="137" fill="white"/>
</clipPath>
</defs>
</svg>
