<svg width="261" height="40" viewBox="0 0 261 40" fill="none" xmlns="http://www.w3.org/2000/svg">
<path d="M45.6207 28.585C44.9667 28.1003 44.8023 27.6068 45.1273 27.1044L46.3003 25.2831C46.6863 24.6865 47.2639 24.6509 48.0331 25.1763C48.6231 25.5782 49.3905 25.9943 50.3353 26.4247C51.2903 26.8446 52.2886 27.0506 53.3302 27.0428C54.0593 27.0374 54.7611 26.9488 55.4354 26.777C56.1097 26.6053 56.6199 26.2786 56.9661 25.7968C57.3123 25.3151 57.48 24.7461 57.4691 24.0899C57.4613 23.6212 57.3763 23.2104 57.2142 22.8575C57.0521 22.5045 56.792 22.2148 56.4341 21.9884C56.0761 21.7619 55.7083 21.5719 55.3307 21.4185C54.67 21.1526 53.8375 20.8933 52.8332 20.6404C51.8392 20.377 50.8547 20.0615 49.8797 19.6938C49.0096 19.367 48.2104 18.9147 47.4819 18.3368C46.7535 17.759 46.1854 17.107 45.7774 16.3809C45.3695 15.6548 45.1554 14.6824 45.1352 13.4639C45.1111 12.0161 45.5593 10.7732 46.4796 9.73507C47.4 8.69693 48.4671 8.02748 49.681 7.72671C50.8948 7.42594 52.1215 7.2709 53.3611 7.2616C54.5902 7.25238 55.8589 7.43036 57.1672 7.79554C58.4859 8.16064 59.4832 8.6219 60.1592 9.17932C60.8246 9.72641 60.9944 10.2251 60.6685 10.6755L59.4312 12.3879C59.0138 12.9743 58.4417 13.0255 57.7148 12.5414C57.2513 12.2324 56.6153 11.8882 55.8069 11.5088C55.0088 11.1294 54.1775 10.9429 53.313 10.9494C52.6984 10.954 52.1316 11.0104 51.6125 11.1184C51.1038 11.2264 50.6548 11.4798 50.2656 11.8785C49.8763 12.2773 49.6866 12.7683 49.6962 13.3515C49.7056 13.9139 49.859 14.3711 50.1566 14.723C50.4539 15.0646 50.7812 15.3225 51.1383 15.4969C51.4952 15.6609 51.8569 15.7988 52.2234 15.9106C53.3544 16.2667 54.3649 16.5821 55.255 16.8566C56.1449 17.1208 56.9676 17.4167 57.7231 17.7444C58.7725 18.2052 59.5771 18.6679 60.137 19.1325C60.6968 19.597 61.1606 20.2342 61.5282 21.0439C61.9063 21.8535 62.1047 22.8208 62.1234 23.9456C62.151 25.6121 61.6427 26.9961 60.5984 28.0977C59.5539 29.1888 58.3833 29.8955 57.0864 30.2177C55.8001 30.5503 54.5424 30.7212 53.3133 30.7304C51.5009 30.744 50.024 30.578 48.8827 30.2324C47.7416 29.8972 46.6543 29.3481 45.6207 28.585Z" fill="#048BB1"/>
<path d="M66.3822 30.1011C65.7573 30.1058 65.4396 29.7957 65.4292 29.1708L65.1879 14.6415C65.1775 14.0166 65.4848 13.7018 66.1098 13.6971L68.5785 13.6786C69.2035 13.6739 69.5212 13.984 69.5315 14.6089L69.5466 15.5151L69.6091 15.5146C69.9001 14.8457 70.4018 14.3159 71.1141 13.9252C71.8264 13.5344 72.4951 13.3367 73.1201 13.332C74.37 13.3226 75.3436 13.607 76.0407 14.1851C76.7483 14.7631 77.2383 15.4105 77.5106 16.1272L77.5731 16.1267C78.4598 14.943 79.2648 14.1713 79.9881 13.8117C80.7217 13.4521 81.6615 13.2679 82.8073 13.2593C84.3489 13.2478 85.6542 13.7484 86.7232 14.7612C87.8026 15.7739 88.3648 17.6343 88.4098 20.3422L88.5536 28.9973C88.5639 29.6222 88.2566 29.937 87.6316 29.9417L85.1317 29.9604C84.5067 29.9651 84.1891 29.655 84.1787 29.0301L84.0536 21.4999C84.0159 19.2294 83.8359 17.7984 83.5135 17.2071C83.2016 16.6157 82.655 16.3229 81.8738 16.3288C81.1446 16.3343 80.4851 16.7663 79.8951 17.6249C79.3052 18.4835 79.0323 20.2459 79.0766 22.9122L79.1788 29.0676C79.1892 29.6925 78.8819 30.0073 78.2569 30.012L75.757 30.0308C75.132 30.0355 74.8143 29.7253 74.8039 29.1004L74.6789 21.5702C74.6412 19.2997 74.4611 17.8688 74.1388 17.2775C73.8269 16.6861 73.2803 16.3933 72.4991 16.3991C71.7699 16.4046 71.1104 16.8366 70.5204 17.6952C69.9302 18.5434 69.6574 20.3058 69.7019 22.9825L69.8041 29.1379C69.8145 29.7629 69.5072 30.0777 68.8822 30.0823L66.3822 30.1011Z" fill="#048BB1"/>
<path d="M91.8401 25.5352C91.8055 23.4521 92.7752 21.9344 94.7492 20.9821C96.7231 20.0298 98.9856 19.5129 101.537 19.4312L101.526 18.8063C101.51 17.8481 101.259 17.1729 100.774 16.7808C100.288 16.3886 99.6181 16.1957 98.7639 16.2021C98.1598 16.2066 97.6248 16.2992 97.159 16.4798C96.7035 16.6498 96.3057 16.8507 95.9658 17.0824C95.6361 17.3037 95.3377 17.5299 95.0707 17.761C94.5985 18.1812 94.203 18.205 93.8843 17.8324L92.561 16.2486C92.2315 15.8553 92.3029 15.4485 92.7751 15.0283C93.1343 14.7027 93.5515 14.4183 94.0267 14.1752C94.5123 13.9319 95.1544 13.7032 95.953 13.4888C96.7514 13.2641 97.7912 13.1469 99.0724 13.1373C101.239 13.1211 102.909 13.6085 104.082 14.5997C105.265 15.5908 105.873 17.0602 105.905 19.0079L106.069 28.8659C106.079 29.4908 105.772 29.8056 105.147 29.8103L102.584 29.8295C102.022 29.8337 101.735 29.5234 101.725 28.8985L101.717 28.4298L101.686 28.43C101.081 29.0283 100.349 29.4713 99.4891 29.759C98.6395 30.0362 97.8553 30.1775 97.1366 30.1829C95.4283 30.1957 94.1245 29.7888 93.2253 28.9622C92.3259 28.1252 91.8642 26.9829 91.8401 25.5352ZM96.4634 25.4067C96.4695 25.7713 96.5477 26.0884 96.698 26.3581C96.8482 26.6174 97.0805 26.8083 97.3951 26.931C97.7097 27.0536 98.0596 27.1135 98.4451 27.1106C98.9763 27.1066 99.4907 27.0298 99.9883 26.8803C100.486 26.7307 101.037 26.3828 101.643 25.8366L101.587 22.4465C99.84 22.6575 98.6724 22.9214 98.0838 23.2383C97.4953 23.5553 97.0736 23.8813 96.8187 24.2166C96.5743 24.5517 96.4558 24.9485 96.4634 25.4067Z" fill="#048BB1"/>
<path d="M111.287 29.7642C110.662 29.7689 110.345 29.4588 110.334 28.8339L110.093 14.3046C110.083 13.6797 110.39 13.3649 111.015 13.3602L113.483 13.3417C114.108 13.337 114.426 13.6471 114.437 14.272L114.458 15.5531L114.52 15.5526C114.78 14.884 115.223 14.2922 115.85 13.7771C116.477 13.2619 117.223 13.0011 118.088 12.9947C118.681 12.9902 119.172 13.0594 119.56 13.2024C119.927 13.335 120.071 13.5839 119.994 13.9491L119.588 15.8115C119.501 16.2288 119.222 16.3559 118.75 16.1928C118.478 16.1011 118.217 16.0561 117.967 16.058C116.967 16.0655 116.148 16.6706 115.512 17.8733C114.876 19.076 114.577 20.823 114.615 23.1143L114.709 28.801C114.719 29.426 114.412 29.7408 113.787 29.7454L111.287 29.7642Z" fill="#048BB1"/>
<path d="M121.863 16.4038C121.249 16.4084 120.937 16.1503 120.928 15.6296L120.902 14.0673C120.894 13.5465 121.197 13.2838 121.811 13.2792L122.874 13.2712L122.865 12.7244C122.857 12.2558 122.959 11.8279 123.172 11.4409L124.34 9.32279C124.562 8.92529 124.83 8.72537 125.142 8.72303L126.236 8.71482C126.861 8.71013 127.179 9.02025 127.189 9.64516L127.249 13.2384L129.78 13.2194C130.394 13.2148 130.706 13.4729 130.715 13.9937L130.741 15.5559C130.749 16.0767 130.446 16.3394 129.832 16.344L127.301 16.363L127.429 24.1119C127.447 25.1743 127.533 25.9392 127.686 26.4068C127.85 26.8639 128.25 27.0901 128.885 27.0853C129.208 27.0829 129.572 27.0281 129.976 26.9209C130.381 26.8033 130.696 26.6915 130.924 26.5857C131.286 26.4163 131.527 26.5343 131.649 26.9396L132.147 28.7171C132.246 29.0705 132.115 29.3319 131.754 29.5013C131.412 29.6601 130.941 29.8042 130.339 29.9338C129.747 30.0736 129.149 30.1458 128.545 30.1503C127.056 30.1615 125.78 29.8638 124.718 29.2572C123.655 28.6506 123.108 27.3891 123.076 25.4727L122.926 16.3958L121.863 16.4038Z" fill="#048BB1"/>
<path d="M136.568 29.5745C135.839 29.58 135.468 29.1922 135.455 28.411L135.121 8.35129C135.108 7.57015 135.467 7.17684 136.196 7.17137L141.649 7.13046C146.44 7.09451 149.696 8.03882 151.415 9.96339C153.145 11.8879 154.04 14.6363 154.099 18.2088C154.159 21.7812 153.356 24.5528 151.69 26.5236C150.036 28.4943 146.812 29.4977 142.021 29.5336L136.568 29.5745ZM139.972 25.674L141.66 25.6614C144.889 25.6372 146.967 25.0226 147.895 23.8177C148.823 22.6025 149.266 20.745 149.225 18.2453C149.183 15.7457 148.679 13.9057 147.711 12.7255C146.743 11.5349 144.645 10.9517 141.416 10.9759L139.728 10.9886L139.972 25.674Z" fill="#048BB1"/>
<path d="M156.743 21.2201C156.699 18.5643 157.347 16.4761 158.687 14.9556C160.036 13.4351 162.065 12.6647 164.774 12.6444C167.482 12.6241 169.531 13.3639 170.921 14.8639C172.321 16.3638 173.043 18.4416 173.087 21.0975C173.131 23.7534 172.478 25.8416 171.128 27.3621C169.789 28.8826 167.765 29.653 165.057 29.6733C162.348 29.6936 160.294 28.9538 158.894 27.4539C157.504 25.954 156.788 23.876 156.743 21.2201ZM161.368 21.1854C161.401 23.1643 161.727 24.5681 162.345 25.3968C162.973 26.215 163.86 26.6198 165.006 26.6112C166.151 26.6026 167.02 26.1846 167.61 25.3573C168.211 24.5195 168.495 23.1111 168.462 21.1322C168.429 19.1533 168.098 17.7548 167.47 16.9366C166.852 16.1079 165.97 15.6979 164.825 15.7065C163.679 15.7151 162.806 16.1383 162.205 16.9761C161.614 17.8034 161.335 19.2066 161.368 21.1854Z" fill="#048BB1"/>
<path d="M175.587 21.0788C175.543 18.4229 176.175 16.3348 177.483 14.8146C178.791 13.2944 180.825 12.524 183.586 12.5032C185.2 12.4911 186.459 12.6952 187.362 13.1155C188.265 13.5358 188.994 14.1554 189.549 14.9741C189.88 15.4612 189.835 15.8469 189.412 16.1314L187.774 17.2374C187.311 17.5534 186.897 17.4367 186.534 16.8873C186.352 16.6179 186.009 16.3288 185.504 16.0201C184.998 15.7114 184.376 15.5598 183.637 15.5653C182.46 15.5742 181.586 15.9974 181.017 16.835C180.447 17.6621 180.179 19.0652 180.212 21.0441C180.244 23.023 180.559 24.4268 181.157 25.2557C181.754 26.0741 182.641 26.4789 183.818 26.4701C184.661 26.4637 185.341 26.2816 185.856 25.9235C186.371 25.5655 186.853 25.1036 187.302 24.5377C187.689 24.0556 188.105 23.9848 188.548 24.3252L190.02 25.4548C190.463 25.7952 190.497 26.2533 190.121 26.829C189.725 27.4362 189.042 28.035 188.073 28.6256C187.114 29.2161 185.712 29.5183 183.868 29.5321C181.108 29.5529 179.049 28.8131 177.69 27.3129C176.332 25.8127 175.631 23.7347 175.587 21.0788Z" fill="#048BB1"/>
<path d="M193.22 28.0558C192.703 27.6951 192.556 27.3055 192.779 26.8872L193.551 25.4283C193.824 24.9054 194.26 24.8397 194.861 25.231C195.461 25.6223 196.164 25.9087 196.969 26.0902C197.784 26.2715 198.526 26.3597 199.192 26.3547C199.661 26.3512 200.098 26.3011 200.502 26.2043C200.907 26.1075 201.248 25.9226 201.524 25.6497C201.801 25.3768 201.935 24.98 201.927 24.4592C201.921 24.1468 201.834 23.8818 201.663 23.6643C201.493 23.4469 201.277 23.2818 201.014 23.1692C200.752 23.0566 200.475 22.9649 200.182 22.8942C199.795 22.8034 199.235 22.6513 198.502 22.4381C197.78 22.2247 197.083 21.9748 196.411 21.6881C195.855 21.4527 195.308 21.1235 194.77 20.7005C194.242 20.2669 193.848 19.7855 193.589 19.2562C193.341 18.7268 193.21 18.0716 193.197 17.2904C193.18 16.2385 193.467 15.3145 194.058 14.5184C194.659 13.7222 195.442 13.1695 196.405 12.8602C197.369 12.5509 198.575 12.3908 200.023 12.3799C201.002 12.3726 201.957 12.506 202.889 12.7803C203.821 13.0545 204.487 13.3152 204.887 13.5622C205.518 13.9533 205.681 14.3739 205.376 14.8241L204.446 16.2217C204.162 16.6405 203.693 16.6752 203.042 16.326C202.548 16.0588 202.06 15.8438 201.578 15.6807C201.106 15.5176 200.579 15.4382 199.995 15.4426C199.6 15.4456 199.22 15.4901 198.857 15.5761C198.494 15.6622 198.184 15.8208 197.927 16.0518C197.681 16.2829 197.561 16.5858 197.567 16.9608C197.574 17.3566 197.694 17.6682 197.927 17.8956C198.17 18.1125 198.443 18.2719 198.747 18.3738C199.061 18.4756 199.36 18.5723 199.643 18.6639C200.229 18.847 200.821 19.0249 201.417 19.1975C202.014 19.3597 202.621 19.5582 203.24 19.7932C203.775 19.9975 204.295 20.2905 204.802 20.6721C205.308 21.0537 205.681 21.5405 205.92 22.1324C206.159 22.7244 206.284 23.4005 206.297 24.1608C206.314 25.1711 206.027 26.1107 205.438 26.9797C204.848 27.8487 204.061 28.4692 203.078 28.8412C202.094 29.2131 200.946 29.404 199.634 29.4139C198.165 29.4249 196.913 29.3301 195.879 29.1295C194.844 28.929 193.958 28.571 193.22 28.0558Z" fill="#048BB1"/>
<path d="M8.90776 13.7143L23.7539 5.14286L14.8462 0L0.000332481 8.57127L0 25.7139L8.90769 30.8568L8.90776 13.7143Z" fill="#048BB1"/>
<path d="M32.8965 14.2852V31.4281L18.0503 39.9992L9.14258 34.8563L23.9887 26.2849L23.9888 9.14237L32.8965 14.2852Z" fill="#048BB1"/>
<path d="M215.838 28.826L215.451 5.5565L222.962 5.50015C224.614 5.48776 225.998 5.79555 227.114 6.42353C228.238 7.04387 229.09 7.89354 229.668 8.97251C230.255 10.0514 230.559 11.2688 230.581 12.6247C230.604 13.9806 230.344 15.206 229.801 16.301C229.259 17.3884 228.44 18.2543 227.344 18.8989C226.249 19.5359 224.879 19.8606 223.235 19.8729L217.326 19.9172L217.294 18.0084L223.147 17.9645C224.366 17.9554 225.374 17.7205 226.169 17.26C226.965 16.7919 227.553 16.1587 227.933 15.3604C228.322 14.5621 228.507 13.6554 228.491 12.6404C228.474 11.6254 228.258 10.7217 227.843 9.92938C227.436 9.13699 226.823 8.51659 226.005 8.06819C225.195 7.61973 224.172 7.40013 222.937 7.4094L217.608 7.44938L217.963 28.8101L215.838 28.826Z" fill="#048BB1"/>
<path d="M235.417 28.6791L235.127 11.227L237.093 11.2122L237.137 13.8937L237.285 13.8926C237.619 13.0113 238.213 12.2985 239.068 11.7542C239.93 11.2023 240.91 10.9222 242.009 10.914C242.175 10.9127 242.361 10.9151 242.566 10.9212C242.77 10.9272 242.941 10.9335 243.077 10.9401L243.111 12.9966C243.02 12.9821 242.861 12.9606 242.633 12.932C242.405 12.9034 242.159 12.8901 241.894 12.8921C240.985 12.8989 240.177 13.0982 239.472 13.4898C238.773 13.8738 238.225 14.4045 237.827 15.0817C237.43 15.7589 237.238 16.5293 237.252 17.3928L237.439 28.6639L235.417 28.6791Z" fill="#048BB1"/>
<path d="M253.081 28.9102C251.574 28.9215 250.234 28.549 249.062 27.7927C247.898 27.0363 246.979 25.9863 246.305 24.6429C245.631 23.292 245.279 21.7302 245.25 19.9577C245.22 18.1701 245.52 16.5959 246.149 15.2351C246.778 13.8668 247.662 12.7996 248.801 12.0335C249.947 11.2597 251.274 10.8672 252.781 10.8559C254.289 10.8446 255.625 11.2171 256.789 11.9735C257.953 12.7299 258.872 13.7836 259.546 15.1346C260.228 16.4856 260.584 18.0548 260.613 19.8425C260.643 21.615 260.343 23.1816 259.714 24.5423C259.085 25.8955 258.197 26.959 257.051 27.7327C255.912 28.5064 254.589 28.8989 253.081 28.9102ZM253.05 27.0582C254.263 27.0491 255.284 26.7157 256.114 26.058C256.944 25.4002 257.566 24.5282 257.98 23.4417C258.401 22.3552 258.601 21.1606 258.579 19.8577C258.558 18.5549 258.318 17.3597 257.86 16.2723C257.411 15.1847 256.76 14.3146 255.908 13.6619C255.056 13.0093 254.024 12.6875 252.812 12.6966C251.607 12.7056 250.586 13.0428 249.749 13.7082C248.919 14.3735 248.293 15.2531 247.872 16.3472C247.458 17.4412 247.262 18.6396 247.284 19.9425C247.306 21.2453 247.541 22.4367 247.991 23.5167C248.449 24.5966 249.103 25.4591 249.955 26.1042C250.807 26.7493 251.838 27.0673 253.05 27.0582Z" fill="#048BB1"/>
</svg>
