<svg width="322" height="115" viewBox="0 0 322 115" fill="none" xmlns="http://www.w3.org/2000/svg">
<rect width="115" height="115" rx="20" fill="white"/>
<path fill-rule="evenodd" clip-rule="evenodd" d="M46.2989 63.1459H28.1748C28.1748 64.4674 28.2619 65.7685 28.4307 67.0435C30.3235 81.3454 42.4881 92.3782 57.2123 92.3782C71.9365 92.3782 84.1011 81.3454 85.9939 67.0435C86.1627 65.7685 86.2498 64.4674 86.2498 63.1459H68.1257L61.3797 67.0435H82.0567C80.1952 79.2023 69.7612 88.4806 57.2123 88.4806C44.6634 88.4806 34.2294 79.2023 32.3679 67.0435H52.9574L46.2989 63.1459Z" fill="#2C84DA"/>
<path d="M37.0449 23.0001C37.0433 23.0001 37.0416 23.0001 37.04 23.0001C36.4916 23.0001 35.9758 23.2139 35.5863 23.6024C35.1925 23.9952 34.9756 24.5183 34.9756 25.0751V56.1886C34.9756 57.3295 35.9074 58.26 37.0531 58.263C41.8828 58.2745 49.9745 59.2811 55.5566 65.1227V32.5615C55.5566 32.1748 55.4578 31.8114 55.2714 31.5108C50.6898 24.1325 41.8855 23.0114 37.0449 23.0001Z" fill="#2C84DA"/>
<path d="M79.3587 56.1887V25.075C79.3587 24.5181 79.1418 23.9951 78.748 23.6023C78.3585 23.2138 77.8423 23 77.2944 23C77.2927 23 77.2909 23 77.2894 23C72.4489 23.0115 63.6446 24.1326 59.0629 31.5108C58.8764 31.8115 58.7778 32.1748 58.7778 32.5616V65.1226C64.36 59.281 72.4517 58.2744 77.2814 58.2628C78.4268 58.2599 79.3587 57.3294 79.3587 56.1887Z" fill="#2C84DA"/>
<path d="M84.0845 30.1754H82.58V56.1886C82.58 59.1017 80.2065 61.4771 77.289 61.4844C73.1924 61.4941 66.4376 62.2952 61.6538 66.8229C69.9274 64.7971 78.6493 66.114 83.62 67.2467C84.2407 67.3881 84.882 67.242 85.3793 66.8457C85.8748 66.4503 86.159 65.8594 86.159 65.2251V32.25C86.1592 31.1061 85.2284 30.1754 84.0845 30.1754Z" fill="#2C84DA"/>
<path d="M31.7538 56.1886V30.1754H30.2494C29.1057 30.1754 28.1748 31.1061 28.1748 32.25V65.2245C28.1748 65.859 28.4591 66.4498 28.9546 66.8451C29.4514 67.2413 30.0922 67.3879 30.7138 67.2461C35.6845 66.1132 44.4066 64.7965 52.6798 66.8223C47.8962 62.2948 41.1415 61.4939 37.0449 61.4842C34.1275 61.4771 31.7538 59.1017 31.7538 56.1886Z" fill="#2C84DA"/>
<path d="M33.6318 74.0592H67.5414" stroke="#2C84DA" stroke-width="4.06711" stroke-linecap="round"/>
<path d="M53.1201 79.516L79.2344 79.516" stroke="#2C84DA" stroke-width="4.06711" stroke-linecap="round"/>
<path d="M157.452 24.6754C157.318 24.2276 157.132 23.8326 156.894 23.4905C156.656 23.1423 156.366 22.85 156.025 22.6137C155.69 22.3712 155.306 22.1877 154.874 22.0632C154.448 21.9386 153.976 21.8792 153.459 21.885C152.493 21.8957 151.646 22.1451 150.919 22.6333C150.198 23.1214 149.64 23.8263 149.244 24.7479C148.848 25.6633 148.658 26.7796 148.672 28.0967C148.687 29.4139 148.9 30.5319 149.31 31.4507C149.721 32.3695 150.295 33.0679 151.033 33.5461C151.771 34.018 152.638 34.2485 153.635 34.2375C154.54 34.2274 155.311 34.0589 155.947 33.7317C156.59 33.3984 157.077 32.9344 157.409 32.3397C157.747 31.745 157.911 31.0446 157.902 30.2383L158.716 30.3493L153.841 30.4033L153.808 27.3935L161.72 27.3059L161.747 29.6878C161.765 31.3497 161.43 32.7815 160.742 33.9833C160.054 35.179 159.098 36.1068 157.874 36.7667C156.65 37.4204 155.245 37.7561 153.657 37.7737C151.884 37.7933 150.322 37.4197 148.972 36.6529C147.621 35.8799 146.562 34.7744 145.795 33.3363C145.034 31.892 144.642 30.1727 144.62 28.1786C144.603 26.646 144.809 25.2771 145.238 24.072C145.674 22.8607 146.29 21.832 147.087 20.986C147.884 20.14 148.816 19.4926 149.882 19.0437C150.948 18.5949 152.106 18.3635 153.355 18.3497C154.426 18.3378 155.425 18.4837 156.352 18.7874C157.278 19.0849 158.102 19.5129 158.822 20.0712C159.549 20.6295 160.144 21.2969 160.608 22.0736C161.072 22.844 161.374 23.6963 161.514 24.6304L157.452 24.6754ZM171.228 37.5975C169.77 37.6137 168.511 37.3322 167.452 36.7529C166.398 36.1675 165.583 35.3332 165.004 34.2501C164.426 33.1608 164.128 31.8683 164.111 30.3726C164.095 28.9139 164.363 27.6306 164.917 26.5226C165.471 25.4146 166.259 24.5471 167.279 23.9203C168.307 23.2933 169.516 22.9721 170.907 22.9567C171.842 22.9464 172.715 23.0875 173.525 23.3802C174.34 23.6666 175.053 24.105 175.663 24.6954C176.279 25.2856 176.761 26.0313 177.11 26.9323C177.459 27.8272 177.64 28.8778 177.653 30.0842L177.666 31.1643L165.691 31.297L165.664 28.8596L173.936 28.768C173.93 28.2017 173.801 27.7015 173.55 27.2672C173.299 26.8329 172.953 26.4951 172.513 26.2538C172.08 26.0062 171.577 25.8856 171.004 25.8919C170.407 25.8985 169.88 26.0429 169.421 26.325C168.969 26.6008 168.616 26.971 168.362 27.4355C168.109 27.8938 167.982 28.403 167.983 28.9632L168.009 31.2805C168.017 31.9822 168.153 32.587 168.417 33.095C168.687 33.6029 169.064 33.9927 169.547 34.2644C170.03 34.536 170.601 34.6682 171.26 34.6609C171.697 34.6561 172.096 34.5901 172.458 34.463C172.82 34.3359 173.129 34.1478 173.384 33.8987C173.64 33.6497 173.834 33.3459 173.965 32.9874L177.605 33.1872C177.43 34.0632 177.061 34.8306 176.495 35.4894C175.936 36.1419 175.21 36.6547 174.315 37.0278C173.427 37.3947 172.398 37.5846 171.228 37.5975ZM191.986 26.9522L188.387 27.2137C188.322 26.9066 188.187 26.6311 187.981 26.3872C187.775 26.1371 187.505 25.94 187.171 25.796C186.843 25.6457 186.452 25.5731 185.996 25.5781C185.387 25.5849 184.874 25.7198 184.459 25.983C184.043 26.24 183.837 26.5808 183.842 27.0055C183.846 27.344 183.985 27.6287 184.258 27.8596C184.532 28.0905 184.998 28.2731 185.659 28.4073L188.231 28.8959C189.613 29.1638 190.646 29.6079 191.33 30.2282C192.014 30.8485 192.362 31.6695 192.373 32.6912C192.384 33.6206 192.119 34.4391 191.579 35.1469C191.045 35.8545 190.307 36.4106 189.363 36.815C188.426 37.2132 187.342 37.4191 186.111 37.4327C184.234 37.4535 182.734 37.0792 181.611 36.3099C180.494 35.5343 179.833 34.4706 179.627 33.1186L183.493 32.8726C183.616 33.4438 183.904 33.8776 184.357 34.1742C184.809 34.4647 185.387 34.606 186.088 34.5983C186.778 34.5906 187.33 34.4522 187.746 34.1829C188.167 33.9074 188.379 33.5572 188.38 33.1325C188.37 32.7755 188.216 32.4849 187.918 32.2604C187.62 32.0298 187.162 31.8563 186.546 31.74L184.084 31.2779C182.696 31.0163 181.66 30.5476 180.975 29.8719C180.297 29.1962 179.951 28.329 179.939 27.2703C179.929 26.3594 180.167 25.5719 180.652 24.9079C181.143 24.2438 181.836 23.7283 182.73 23.3613C183.631 22.9943 184.688 22.8041 185.9 22.7907C187.691 22.7708 189.105 23.1338 190.141 23.8794C191.184 24.625 191.799 25.6493 191.986 26.9522ZM202.283 22.7939L202.316 25.7483L193.776 25.8429L193.743 22.8885L202.283 22.7939ZM195.643 19.4695L199.576 19.426L199.725 32.6467C199.729 33.0098 199.788 33.2924 199.901 33.4942C200.014 33.69 200.169 33.8268 200.367 33.9046C200.571 33.9824 200.805 34.0198 201.07 34.0168C201.255 34.0148 201.439 33.9974 201.624 33.9645C201.808 33.9256 201.949 33.8963 202.047 33.8767L202.699 36.7966C202.502 36.8603 202.226 36.9341 201.87 37.0181C201.514 37.1082 201.081 37.1653 200.57 37.1895C199.623 37.2369 198.79 37.1199 198.073 36.8386C197.362 36.5571 196.806 36.1139 196.405 35.5089C196.005 34.904 195.802 34.1367 195.798 33.2073L195.643 19.4695ZM205.004 36.9465L204.845 22.7655L208.778 22.722L208.937 36.9029L205.004 36.9465ZM206.8 20.9157C206.215 20.9221 205.711 20.7338 205.288 20.3507C204.872 19.9613 204.66 19.4928 204.654 18.945C204.648 18.4033 204.849 17.9364 205.257 17.544C205.671 17.1455 206.17 16.943 206.755 16.9365C207.34 16.93 207.841 17.1215 208.257 17.5108C208.68 17.8939 208.895 18.3563 208.901 18.8979C208.907 19.4457 208.703 19.9189 208.289 20.3174C207.881 20.7098 207.385 20.9092 206.8 20.9157ZM218.498 37.074C217.064 37.0899 215.82 36.799 214.767 36.2012C213.72 35.5973 212.907 34.7506 212.329 33.6613C211.75 32.5659 211.453 31.2918 211.436 29.8393C211.42 28.3744 211.688 27.0911 212.242 25.9892C212.796 24.8812 213.59 24.0168 214.623 23.3959C215.663 22.7688 216.899 22.4474 218.333 22.4315C219.768 22.4156 221.008 22.7096 222.055 23.3136C223.108 23.9114 223.924 24.758 224.503 25.8534C225.082 26.9427 225.379 28.2198 225.396 29.6847C225.412 31.1372 225.143 32.4175 224.589 33.5255C224.035 34.6274 223.239 35.4918 222.199 36.1189C221.166 36.7398 219.932 37.0581 218.498 37.074ZM218.482 34.0271C219.135 34.0199 219.677 33.8292 220.11 33.4551C220.543 33.0748 220.867 32.5603 221.081 31.9116C221.301 31.2628 221.407 30.526 221.398 29.7013C221.388 28.8765 221.266 28.1423 221.031 27.4985C220.802 26.8547 220.467 26.3475 220.026 25.9769C219.585 25.6063 219.038 25.4246 218.386 25.4318C217.727 25.4391 217.175 25.633 216.73 26.0134C216.291 26.3937 215.962 26.9083 215.741 27.5571C215.527 28.2058 215.424 28.9426 215.434 29.7673C215.443 30.5921 215.562 31.3264 215.791 31.9702C216.026 32.6139 216.367 33.1211 216.814 33.4916C217.268 33.8559 217.824 34.0344 218.482 34.0271ZM231.873 28.4495L231.965 36.6479L228.032 36.6914L227.873 22.5105L231.621 22.469L231.649 24.971L231.815 24.9691C232.12 24.1409 232.639 23.4826 233.372 22.9944C234.105 22.5 234.998 22.2469 236.05 22.2353C237.035 22.2244 237.896 22.4303 238.633 22.853C239.371 23.2757 239.947 23.8849 240.362 24.6806C240.777 25.4701 240.991 26.4157 241.004 27.5174L241.105 36.5466L237.172 36.5902L237.078 28.2626C237.075 27.3947 236.846 26.7201 236.391 26.2388C235.936 25.7514 235.315 25.5121 234.527 25.5208C233.998 25.5267 233.531 25.6457 233.127 25.8779C232.73 26.1101 232.42 26.446 232.197 26.8855C231.98 27.3188 231.872 27.8401 231.873 28.4495ZM145.407 68.6084L145.194 49.7005L157.935 49.5594L157.972 52.8554L149.229 52.9522L149.28 57.4576L157.367 57.368L157.404 60.664L149.317 60.7535L149.368 65.2682L158.148 65.1709L158.185 68.4669L145.407 68.6084ZM164.972 49.4815L165.185 68.3894L161.252 68.4329L161.039 49.525L164.972 49.4815ZM174.801 68.5599C173.343 68.576 172.084 68.2945 171.025 67.7153C169.972 67.1298 169.156 66.2955 168.577 65.2124C167.999 64.1231 167.701 62.8306 167.684 61.335C167.668 59.8763 167.937 58.5929 168.49 57.4849C169.044 56.3769 169.832 55.5095 170.853 54.8826C171.88 54.2556 173.089 53.9345 174.48 53.9191C175.415 53.9087 176.288 54.0498 177.098 54.3425C177.913 54.6289 178.626 55.0673 179.236 55.6577C179.852 56.248 180.335 56.9936 180.683 57.8946C181.032 58.7895 181.213 59.8401 181.227 61.0465L181.239 62.1267L169.264 62.2593L169.237 59.8219L177.509 59.7303C177.503 59.1641 177.374 58.6638 177.123 58.2295C176.872 57.7953 176.526 57.4575 176.087 57.2161C175.653 56.9685 175.15 56.8479 174.577 56.8542C173.98 56.8608 173.453 57.0052 172.994 57.2873C172.542 57.5631 172.189 57.9333 171.936 58.3978C171.682 58.8561 171.556 59.3654 171.556 59.9255L171.582 62.2429C171.59 62.9445 171.726 63.5493 171.99 64.0573C172.26 64.5653 172.637 64.9551 173.12 65.2267C173.604 65.4984 174.175 65.6305 174.833 65.6233C175.27 65.6184 175.669 65.5524 176.031 65.4253C176.393 65.2982 176.702 65.1101 176.957 64.861C177.213 64.612 177.407 64.3082 177.538 63.9497L181.178 64.1495C181.004 65.0255 180.634 65.7929 180.069 66.4517C179.51 67.1042 178.783 67.617 177.888 67.9901C177 68.357 175.971 68.5469 174.801 68.5599ZM190.284 68.3884C188.832 68.4045 187.579 68.1106 186.525 67.5067C185.478 66.8965 184.668 66.0437 184.096 64.9482C183.53 63.8526 183.238 62.5877 183.222 61.1537C183.206 59.7011 183.472 58.4239 184.019 57.3221C184.573 56.2141 185.367 55.3466 186.4 54.7196C187.433 54.0865 188.667 53.7619 190.101 53.7461C191.338 53.7324 192.424 53.945 193.358 54.384C194.293 54.823 195.035 55.4458 195.586 56.2522C196.137 57.0587 196.446 58.0094 196.514 59.1043L192.803 59.1454C192.69 58.4388 192.407 57.8725 191.952 57.4467C191.504 57.0146 190.92 56.8025 190.2 56.8105C189.591 56.8172 189.06 56.9893 188.609 57.3267C188.163 57.6579 187.817 58.1388 187.572 58.7694C187.327 59.4 187.209 60.1615 187.219 61.054C187.229 61.9588 187.361 62.7268 187.615 63.358C187.874 63.9892 188.233 64.4684 188.693 64.7957C189.152 65.123 189.686 65.2833 190.295 65.2766C190.745 65.2716 191.147 65.1748 191.502 64.9862C191.863 64.7975 192.158 64.5265 192.388 64.1731C192.624 63.8134 192.776 63.3839 192.845 62.8846L196.556 62.8435C196.507 63.9274 196.222 64.8847 195.702 65.7153C195.188 66.5397 194.472 67.1878 193.554 67.6597C192.636 68.1315 191.546 68.3744 190.284 68.3884ZM206.516 53.7489L206.549 56.7033L198.009 56.7979L197.976 53.8435L206.516 53.7489ZM199.877 50.4245L203.81 50.381L203.958 63.6017C203.962 63.9649 204.021 64.2474 204.134 64.4493C204.247 64.645 204.402 64.7818 204.6 64.8596C204.804 64.9374 205.039 64.9748 205.303 64.9719C205.488 64.9698 205.672 64.9524 205.857 64.9196C206.041 64.8806 206.182 64.8513 206.281 64.8318L206.932 67.7516C206.736 67.8153 206.46 67.8892 206.104 67.9731C205.747 68.0632 205.314 68.1204 204.804 68.1445C203.856 68.1919 203.024 68.0749 202.307 67.7936C201.595 67.5121 201.04 67.0689 200.639 66.4639C200.238 65.859 200.035 65.0918 200.031 64.1623L199.877 50.4245ZM209.237 67.9015L209.078 53.7206L212.891 53.6783L212.919 56.1526L213.066 56.151C213.315 55.268 213.742 54.5984 214.346 54.1424C214.95 53.6801 215.649 53.4446 216.443 53.4359C216.64 53.4337 216.853 53.4436 217.081 53.4657C217.309 53.4878 217.509 53.5195 217.682 53.5606L217.721 57.0505C217.536 56.9971 217.28 56.9507 216.953 56.9112C216.626 56.8718 216.328 56.8535 216.057 56.8565C215.478 56.8629 214.963 56.9948 214.51 57.2522C214.064 57.5034 213.71 57.852 213.451 58.2981C213.197 58.7441 213.074 59.2564 213.08 59.835L213.17 67.8579L209.237 67.9015ZM225.626 67.997C224.192 68.0129 222.948 67.7219 221.895 67.1242C220.848 66.5202 220.035 65.6736 219.456 64.5843C218.878 63.4888 218.58 62.2148 218.564 60.7623C218.547 59.2974 218.816 58.014 219.37 56.9122C219.924 55.8042 220.717 54.9397 221.751 54.3189C222.79 53.6918 224.027 53.3703 225.461 53.3544C226.895 53.3386 228.136 53.6326 229.183 54.2366C230.236 54.8343 231.052 55.6809 231.631 56.7764C232.209 57.8657 232.507 59.1428 232.523 60.6077C232.54 62.0602 232.271 63.3405 231.717 64.4485C231.163 65.5503 230.366 66.4148 229.327 67.0419C228.294 67.6627 227.06 67.9811 225.626 67.997ZM225.61 64.9501C226.262 64.9429 226.805 64.7522 227.238 64.3781C227.671 63.9978 227.994 63.4833 228.208 62.8345C228.429 62.1858 228.535 61.449 228.525 60.6242C228.516 59.7995 228.394 59.0652 228.159 58.4215C227.93 57.7777 227.595 57.2705 227.154 56.8998C226.713 56.5292 226.166 56.3475 225.513 56.3548C224.855 56.3621 224.303 56.5559 223.858 56.9363C223.419 57.3167 223.089 57.8313 222.869 58.4801C222.654 59.1288 222.552 59.8655 222.561 60.6903C222.57 61.515 222.689 62.2493 222.918 62.8931C223.153 63.5369 223.495 64.044 223.942 64.4146C224.395 64.7789 224.951 64.9574 225.61 64.9501ZM239 59.3725L239.093 67.5708L235.16 67.6144L235 53.4335L238.749 53.392L238.777 55.8939L238.943 55.8921C239.247 55.0639 239.766 54.4056 240.5 53.9173C241.233 53.4229 242.126 53.1699 243.178 53.1582C244.163 53.1473 245.024 53.3532 245.761 53.776C246.498 54.1987 247.075 54.8079 247.49 55.6035C247.905 56.393 248.119 57.3386 248.131 58.4404L248.233 67.4696L244.3 67.5132L244.206 59.1856C244.202 58.3177 243.973 57.6431 243.519 57.1618C243.064 56.6744 242.442 56.435 241.654 56.4438C241.125 56.4496 240.659 56.5687 240.255 56.8009C239.858 57.0331 239.547 57.3689 239.325 57.8084C239.108 58.2417 239 58.7631 239 59.3725ZM251.333 67.4353L251.173 53.2544L255.106 53.2108L255.266 67.3917L251.333 67.4353ZM253.128 51.4045C252.543 51.4109 252.04 51.2226 251.617 50.8395C251.2 50.4502 250.988 49.9816 250.982 49.4338C250.976 48.8922 251.177 48.4252 251.585 48.0329C251.999 47.6343 252.499 47.4318 253.083 47.4253C253.668 47.4188 254.169 47.6103 254.586 47.9996C255.009 48.3828 255.223 48.8451 255.229 49.3868C255.235 49.9346 255.031 50.4077 254.617 50.8063C254.209 51.1986 253.713 51.398 253.128 51.4045ZM267.847 72.5709L267.761 64.9819L267.641 64.9832C267.461 65.3792 267.204 65.7729 266.87 66.1644C266.542 66.5497 266.111 66.8715 265.579 67.1298C265.052 67.388 264.407 67.5213 263.644 67.5298C262.567 67.5417 261.588 67.2755 260.708 66.7313C259.834 66.1808 259.135 65.3667 258.612 64.2891C258.095 63.2053 257.828 61.8725 257.81 60.2907C257.792 58.6658 258.038 57.3119 258.549 56.229C259.06 55.1399 259.747 54.3228 260.609 53.7777C261.477 53.2264 262.431 52.945 263.471 52.9335C264.265 52.9247 264.928 53.0528 265.46 53.3177C265.999 53.5765 266.433 53.9041 266.764 54.3005C267.101 54.6908 267.358 55.0757 267.534 55.4554L267.7 55.4536L267.674 53.0716L271.551 53.0287L271.771 72.5274L267.847 72.5709ZM264.855 64.3862C265.489 64.3792 266.023 64.2009 266.456 63.8514C266.895 63.4957 267.228 63.0026 267.455 62.3722C267.688 61.7417 267.8 61.0049 267.79 60.1617C267.781 59.3184 267.656 58.5873 267.415 57.9683C267.174 57.3492 266.83 56.8729 266.383 56.5393C265.936 56.2056 265.396 56.0423 264.762 56.0494C264.115 56.0565 263.573 56.238 263.133 56.5937C262.694 56.9494 262.364 57.4394 262.143 58.0636C261.923 58.6877 261.817 59.4091 261.826 60.2277C261.835 61.0525 261.958 61.7806 262.192 62.412C262.433 63.0372 262.774 63.5259 263.215 63.878C263.662 64.224 264.209 64.3934 264.855 64.3862ZM283.894 61.0359L283.803 52.893L287.736 52.8494L287.895 67.0304L284.119 67.0722L284.09 64.4963L283.942 64.498C283.632 65.3324 283.107 66.0061 282.368 66.5191C281.635 67.032 280.736 67.2943 279.671 67.3061C278.723 67.3166 277.887 67.1104 277.162 66.6876C276.437 66.2647 275.867 65.6585 275.452 64.869C275.043 64.0795 274.829 63.1308 274.81 62.023L274.709 52.9937L278.642 52.9502L278.735 61.2777C278.751 62.1147 278.983 62.7739 279.432 63.2552C279.88 63.7366 280.477 63.9731 281.222 63.9649C281.696 63.9596 282.138 63.847 282.548 63.627C282.957 63.4009 283.286 63.071 283.534 62.6373C283.787 62.2036 283.907 61.6698 283.894 61.0359ZM297.507 67.2009C296.048 67.2171 294.789 66.9355 293.73 66.3563C292.677 65.7709 291.861 64.9366 291.283 63.8534C290.704 62.7641 290.406 61.4717 290.39 59.976C290.373 58.5173 290.642 57.234 291.196 56.126C291.75 55.0179 292.537 54.1505 293.558 53.5236C294.585 52.8967 295.794 52.5755 297.185 52.5601C298.121 52.5498 298.993 52.6909 299.803 52.9836C300.619 53.27 301.332 53.7084 301.942 54.2987C302.558 54.889 303.04 55.6347 303.389 56.5357C303.737 57.4306 303.918 58.4812 303.932 59.6875L303.944 60.7677L291.97 60.9003L291.942 58.463L300.215 58.3714C300.208 57.8051 300.079 57.3049 299.828 56.8706C299.577 56.4363 299.232 56.0985 298.792 55.8572C298.358 55.6096 297.855 55.489 297.283 55.4953C296.686 55.5019 296.158 55.6463 295.7 55.9283C295.247 56.2042 294.894 56.5744 294.641 57.0388C294.388 57.4972 294.261 58.0064 294.261 58.5666L294.287 60.8839C294.295 61.5856 294.431 62.1904 294.695 62.6984C294.966 63.2063 295.343 63.5961 295.826 63.8678C296.309 64.1394 296.88 64.2716 297.538 64.2643C297.975 64.2595 298.375 64.1935 298.737 64.0664C299.098 63.9392 299.407 63.7512 299.663 63.5021C299.919 63.253 300.112 62.9493 300.244 62.5908L303.884 62.7905C303.709 63.6666 303.339 64.434 302.774 65.0927C302.215 65.7453 301.488 66.2581 300.594 66.6312C299.705 66.9981 298.676 67.188 297.507 67.2009ZM152.459 99.5322L145.756 99.6064L145.543 80.6985L152.301 80.6237C154.203 80.6026 155.845 80.963 157.226 81.7049C158.607 82.4406 159.674 83.5091 160.429 84.9104C161.189 86.3116 161.581 87.9939 161.603 89.9573C161.625 91.9269 161.272 93.6236 160.543 95.0475C159.82 96.4713 158.771 97.5694 157.394 98.3418C156.024 99.1141 154.379 99.5109 152.459 99.5322ZM149.715 96.137L152.254 96.1088C153.436 96.0957 154.427 95.8755 155.229 95.448C156.036 95.0143 156.638 94.3521 157.035 93.4613C157.437 92.5642 157.63 91.411 157.614 90.0015C157.599 88.6043 157.38 87.4649 156.957 86.5831C156.541 85.7013 155.928 85.0556 155.117 84.646C154.306 84.2364 153.309 84.0382 152.127 84.0513L149.579 84.0795L149.715 96.137ZM171.007 99.6038C169.573 99.6197 168.329 99.3287 167.276 98.731C166.229 98.127 165.416 97.2804 164.838 96.1911C164.259 95.0956 163.962 93.8216 163.945 92.369C163.929 90.9042 164.197 89.6208 164.751 88.519C165.305 87.411 166.099 86.5465 167.132 85.9257C168.172 85.2986 169.408 84.9771 170.842 84.9612C172.277 84.9454 173.517 85.2394 174.564 85.8434C175.617 86.4411 176.433 87.2877 177.012 88.3832C177.591 89.4725 177.888 90.7496 177.905 92.2144C177.921 93.667 177.652 94.9473 177.098 96.0553C176.544 97.1571 175.748 98.0216 174.708 98.6487C173.675 99.2695 172.441 99.5879 171.007 99.6038ZM170.991 96.5569C171.644 96.5497 172.186 96.359 172.619 95.9849C173.052 95.6046 173.376 95.0901 173.59 94.4413C173.81 93.7926 173.916 93.0558 173.907 92.231C173.897 91.4063 173.775 90.672 173.54 90.0283C173.311 89.3845 172.976 88.8772 172.535 88.5066C172.094 88.136 171.547 87.9543 170.895 87.9616C170.236 87.9689 169.684 88.1627 169.239 88.5431C168.8 88.9235 168.471 89.4381 168.25 90.0869C168.036 90.7356 167.933 91.4723 167.943 92.2971C167.952 93.1218 168.071 93.8561 168.3 94.4999C168.535 95.1437 168.876 95.6508 169.323 96.0214C169.777 96.3857 170.333 96.5642 170.991 96.5569ZM186.952 99.4272C185.499 99.4433 184.246 99.1494 183.193 98.5455C182.146 97.9354 181.336 97.0825 180.763 95.987C180.197 94.8914 179.906 93.6266 179.89 92.1925C179.873 90.7399 180.139 89.4627 180.687 88.361C181.241 87.253 182.034 86.3855 183.067 85.7584C184.101 85.1253 185.334 84.8007 186.768 84.7849C188.005 84.7712 189.091 84.9838 190.026 85.4228C190.96 85.8619 191.703 86.4846 192.254 87.291C192.804 88.0975 193.114 89.0482 193.181 90.1432L189.47 90.1843C189.357 89.4776 189.074 88.9113 188.62 88.4855C188.172 88.0534 187.588 87.8413 186.867 87.8493C186.258 87.856 185.728 88.0281 185.276 88.3655C184.83 88.6967 184.485 89.1776 184.239 89.8082C183.994 90.4388 183.877 91.2003 183.887 92.0928C183.897 92.9976 184.029 93.7656 184.282 94.3968C184.541 95.028 184.901 95.5072 185.36 95.8345C185.819 96.1618 186.353 96.3221 186.963 96.3154C187.412 96.3104 187.814 96.2136 188.169 96.025C188.53 95.8363 188.826 95.5653 189.056 95.2119C189.292 94.8522 189.444 94.4227 189.512 93.9234L193.223 93.8823C193.174 94.9662 192.889 95.9235 192.369 96.7541C191.855 97.5785 191.139 98.2266 190.221 98.6985C189.303 99.1703 188.213 99.4132 186.952 99.4272ZM204.826 92.9135L204.734 84.7706L208.667 84.727L208.827 98.9079L205.051 98.9497L205.022 96.3739L204.874 96.3756C204.563 97.21 204.039 97.8837 203.299 98.3967C202.567 98.9096 201.668 99.1719 200.603 99.1837C199.655 99.1942 198.819 98.988 198.094 98.5651C197.369 98.1423 196.799 97.5361 196.383 96.7466C195.974 95.957 195.761 95.0084 195.742 93.9005L195.64 84.8713L199.573 84.8277L199.667 93.1553C199.683 93.9923 199.915 94.6515 200.363 95.1328C200.812 95.6141 201.409 95.8507 202.153 95.8424C202.627 95.8372 203.069 95.7246 203.479 95.5046C203.889 95.2784 204.218 94.9485 204.465 94.5149C204.719 94.0812 204.839 93.5474 204.826 92.9135ZM211.973 98.8731L211.813 84.6922L215.562 84.6507L215.59 87.1526L215.756 87.1508C216.042 86.3166 216.527 85.6557 217.211 85.1679C217.895 84.6802 218.717 84.431 219.677 84.4204C220.65 84.4096 221.48 84.6436 222.169 85.1223C222.857 85.5948 223.32 86.2422 223.557 87.0644L223.705 87.0628C223.985 86.2471 224.501 85.592 225.253 85.0973C226.01 84.5965 226.909 84.3403 227.949 84.3288C229.273 84.3141 230.351 84.7239 231.186 85.5579C232.026 86.3858 232.455 87.5691 232.472 89.1078L232.58 98.6449L228.656 98.6883L228.557 89.9268C228.548 89.139 228.332 88.5504 227.909 88.1611C227.486 87.7719 226.961 87.5807 226.333 87.5877C225.619 87.5956 225.065 87.8295 224.67 88.2894C224.275 88.7431 224.082 89.3393 224.09 90.0779L224.187 98.7378L220.374 98.78L220.275 89.9354C220.267 89.2399 220.061 88.6882 219.656 88.2803C219.257 87.8722 218.735 87.6718 218.089 87.679C217.652 87.6838 217.259 87.799 216.911 88.0244C216.568 88.2437 216.298 88.5514 216.099 88.9475C215.901 89.3375 215.804 89.7941 215.81 90.3173L215.906 98.8295L211.973 98.8731ZM242.152 98.8159C240.693 98.832 239.434 98.5505 238.375 97.9713C237.322 97.3858 236.506 96.5515 235.928 95.4684C235.349 94.3791 235.052 93.0866 235.035 91.591C235.018 90.1323 235.287 88.8489 235.841 87.7409C236.395 86.6329 237.182 85.7655 238.203 85.1386C239.23 84.5116 240.439 84.1905 241.83 84.1751C242.766 84.1647 243.638 84.3059 244.448 84.5985C245.264 84.885 245.977 85.3233 246.587 85.9137C247.203 86.504 247.685 87.2496 248.034 88.1506C248.382 89.0455 248.564 90.0961 248.577 91.3025L248.589 92.3827L236.615 92.5153L236.587 90.0779L244.86 89.9863C244.853 89.4201 244.725 88.9198 244.473 88.4855C244.222 88.0513 243.877 87.7135 243.437 87.4721C243.003 87.2245 242.5 87.1039 241.928 87.1102C241.331 87.1169 240.803 87.2612 240.345 87.5433C239.892 87.8191 239.539 88.1893 239.286 88.6538C239.033 89.1121 238.906 89.6214 238.906 90.1815L238.932 92.4989C238.94 93.2005 239.076 93.8053 239.341 94.3133C239.611 94.8213 239.988 95.2111 240.471 95.4827C240.954 95.7544 241.525 95.8865 242.184 95.8793C242.621 95.8744 243.02 95.8084 243.382 95.6813C243.743 95.5542 244.052 95.3661 244.308 95.117C244.564 94.868 244.757 94.5642 244.889 94.2057L248.529 94.4055C248.354 95.2815 247.984 96.0489 247.419 96.7077C246.86 97.3602 246.133 97.873 245.239 98.2461C244.35 98.613 243.321 98.8029 242.152 98.8159ZM255.065 90.1965L255.157 98.3948L251.224 98.4384L251.065 84.2575L254.813 84.216L254.841 86.7179L255.007 86.7161C255.312 85.8878 255.831 85.2296 256.564 84.7413C257.297 84.2469 258.19 83.9939 259.243 83.9822C260.227 83.9713 261.088 84.1772 261.826 84.6C262.563 85.0227 263.139 85.6319 263.554 86.4275C263.97 87.217 264.183 88.1626 264.196 89.2643L264.297 98.2936L260.364 98.3372L260.271 90.0096C260.267 89.1417 260.038 88.4671 259.583 87.9858C259.128 87.4984 258.507 87.259 257.719 87.2678C257.19 87.2736 256.723 87.3927 256.32 87.6249C255.922 87.8571 255.612 88.1929 255.389 88.6324C255.172 89.0657 255.064 89.5871 255.065 90.1965ZM274.78 83.9948L274.814 86.9492L266.274 87.0438L266.24 84.0894L274.78 83.9948ZM268.141 80.6704L272.074 80.6269L272.223 93.8476C272.227 94.2107 272.285 94.4933 272.399 94.6951C272.512 94.8909 272.667 95.0277 272.865 95.1055C273.069 95.1833 273.303 95.2207 273.568 95.2177C273.753 95.2157 273.937 95.1983 274.121 95.1654C274.306 95.1265 274.447 95.0972 274.545 95.0776L275.197 97.9975C275 98.0612 274.724 98.135 274.368 98.219C274.012 98.3091 273.579 98.3663 273.068 98.3904C272.121 98.4378 271.288 98.3208 270.571 98.0395C269.86 97.758 269.304 97.3148 268.903 96.7098C268.502 96.1049 268.3 95.3376 268.296 94.4082L268.141 80.6704ZM289.009 87.8815L285.411 88.143C285.346 87.8359 285.211 87.5604 285.005 87.3165C284.799 87.0664 284.529 86.8693 284.195 86.7252C283.867 86.575 283.475 86.5024 283.02 86.5074C282.41 86.5142 281.898 86.6491 281.482 86.9123C281.067 87.1692 280.861 87.5101 280.866 87.9348C280.87 88.2733 281.008 88.558 281.282 88.7889C281.555 89.0198 282.022 89.2023 282.682 89.3366L285.255 89.8252C286.636 90.0931 287.669 90.5371 288.354 91.1574C289.038 91.7777 289.385 92.5988 289.397 93.6205C289.407 94.5499 289.143 95.3684 288.603 96.0762C288.069 96.7838 287.33 97.3398 286.387 97.7443C285.45 98.1424 284.366 98.3484 283.135 98.362C281.257 98.3828 279.757 98.0085 278.634 97.2392C277.518 96.4636 276.856 95.3998 276.65 94.0479L280.516 93.8019C280.64 94.373 280.928 94.8069 281.38 95.1035C281.833 95.394 282.41 95.5353 283.112 95.5275C283.801 95.5199 284.354 95.3814 284.769 95.1122C285.191 94.8366 285.402 94.4865 285.404 94.0617C285.394 93.7048 285.24 93.4141 284.942 93.1897C284.643 92.9591 284.186 92.7856 283.569 92.6693L281.108 92.2072C279.72 91.9456 278.683 91.4769 277.999 90.8012C277.32 90.1254 276.975 89.2582 276.963 88.1996C276.953 87.2887 277.19 86.5012 277.675 85.8372C278.166 85.1731 278.859 84.6575 279.754 84.2906C280.654 83.9236 281.711 83.7334 282.924 83.72C284.715 83.7001 286.128 84.063 287.165 84.8087C288.207 85.5543 288.822 86.5786 289.009 87.8815Z" fill="white"/>
</svg>
